<svg width="21" height="20" viewBox="0 0 21 20" fill="none" xmlns="http://www.w3.org/2000/svg">
<path d="M14.5084 8.30008C14.7167 8.03341 14.6667 7.64175 14.3917 7.41675C14.125 7.20008 13.725 7.25008 13.5167 7.52508L10.525 11.0334C10.8334 11.2751 11.2167 11.3834 11.6084 11.3334C12 11.2917 12.3417 11.0917 12.5834 10.7834L14.5084 8.30008ZM14.5084 8.30008L14.9024 8.6079M14.5084 8.30008L11.6665 11.83M11.6665 11.83C11.1421 11.8956 10.6273 11.7489 10.2166 11.4269L10.2158 11.4264L8.92105 10.4075L7.11281 12.7552L7.10916 12.7599L7.10913 12.7599C6.88815 13.0398 6.5595 13.1917 6.22502 13.1917C5.98553 13.1917 5.74371 13.1161 5.5362 12.9543C5.03957 12.575 4.95584 11.8707 5.32647 11.3815L5.32889 11.3783L5.3289 11.3783L7.31223 8.80331L7.31481 8.79996L7.31483 8.79997C7.63491 8.39159 8.09363 8.12131 8.62004 8.05411C9.1378 7.98695 9.66299 8.13353 10.0751 8.45655L10.0759 8.45715L11.3714 9.47653L13.1201 7.22057C13.4977 6.72507 14.2191 6.63228 14.707 7.02869L14.7083 7.02977C15.1795 7.41527 15.2887 8.1124 14.9031 8.60702C14.9028 8.60731 14.9026 8.60761 14.9024 8.6079M11.6665 11.83C12.1987 11.772 12.6582 11.4984 12.9769 11.0919L12.9785 11.0897L14.9024 8.6079M11.6665 11.83L14.9024 8.6079M17.95 6.50704V6.50841V13.4917C17.95 14.909 17.5295 15.9802 16.8131 16.6965C16.0968 17.4129 15.0256 17.8334 13.6084 17.8334H6.63335C5.21613 17.8334 4.14511 17.4129 3.42879 16.6957C2.71241 15.9784 2.29169 14.9052 2.29169 13.4834V6.50841C2.29169 5.09118 2.7122 4.02001 3.42857 3.30363C4.14495 2.58726 5.21612 2.16675 6.63335 2.16675H13.6167C15.034 2.16675 16.105 2.5873 16.8202 3.30341C17.5353 4.01942 17.9539 5.09013 17.95 6.50704Z" fill="#005E5E" stroke="#005E5E"/>
</svg>
