<svg width="16" height="16" viewBox="0 0 16 16" fill="none" xmlns="http://www.w3.org/2000/svg">
<path d="M2.67052 14.109L2.67002 14.1093C2.32773 14.3007 2.10786 14.266 1.99785 14.201C1.88695 14.1354 1.75001 13.9578 1.75001 13.5663L1.75001 5.99301C1.75001 5.08313 2.4968 4.33634 3.40668 4.33634L8.59334 4.33634C9.50322 4.33634 10.25 5.08313 10.25 5.99301V13.5663C10.25 13.9574 10.1135 14.1327 10.0026 14.1977C9.89082 14.2633 9.66784 14.2973 9.32133 14.1082C9.32087 14.108 9.3204 14.1077 9.31993 14.1074L6.70386 12.6496C6.70367 12.6495 6.70347 12.6494 6.70327 12.6493C6.48828 12.5289 6.23166 12.4813 5.99918 12.4813C5.76595 12.4813 5.50947 12.5291 5.29321 12.6476L5.29321 12.6475L5.29052 12.649L2.67052 14.109Z" fill="#E8D28B" stroke="#E8D28B" stroke-width="0.833333"/>
<path d="M8.59332 2.50301H6.0228C6.31966 2.04922 6.83162 1.74967 7.40666 1.74967L12.5933 1.74967C13.5032 1.74967 14.25 2.49646 14.25 3.40634V10.9797C14.25 11.3708 14.1133 11.5464 14.0029 11.6113C13.8922 11.6765 13.6714 11.7105 13.3288 11.522C13.3285 11.5218 13.3281 11.5216 13.3278 11.5214L12.0833 10.825V5.99301C12.0833 4.06956 10.5168 2.50301 8.59332 2.50301Z" fill="#E8D28B" stroke="#E8D28B" stroke-width="0.833333"/>
</svg>
