<svg width="16" height="16" viewBox="0 0 16 16" fill="none" xmlns="http://www.w3.org/2000/svg">
<path d="M13.4146 10.8114L13.4148 10.8114L13.4156 10.8236C13.4305 11.0314 13.3578 11.2357 13.2231 11.3854C13.0793 11.5451 12.8709 11.63 12.6667 11.63H8.00002C7.7958 11.63 7.58738 11.5451 7.44365 11.3854C7.31189 11.239 7.23107 11.0293 7.25934 10.8058C7.38877 9.48756 8.44747 8.45026 9.76052 8.32521L9.76089 8.32518C10.1403 8.28939 10.5331 8.28939 10.9125 8.32518L10.9129 8.32521C12.2306 8.45071 13.2812 9.49326 13.4146 10.8114ZM12 2.41667L4.00002 2.41667C2.75408 2.41667 1.75002 3.4195 1.75002 4.64667V11.3533C1.75002 12.5805 2.75408 13.5833 4.00002 13.5833H12C13.246 13.5833 14.25 12.5805 14.25 11.3533V4.64667C14.25 3.4195 13.246 2.41667 12 2.41667ZM8.37669 6.32C8.37669 5.24321 9.25657 4.36333 10.3334 4.36333C11.4101 4.36333 12.29 5.24321 12.29 6.32C12.29 7.39679 11.4101 8.27667 10.3334 8.27667C9.25657 8.27667 8.37669 7.39679 8.37669 6.32ZM4.66669 11.5833L3.33335 11.5833C2.8299 11.5833 2.41669 11.1701 2.41669 10.6667C2.41669 10.1632 2.8299 9.75 3.33335 9.75H4.66669C5.17014 9.75 5.58335 10.1632 5.58335 10.6667C5.58335 11.1701 5.17014 11.5833 4.66669 11.5833ZM6.00002 8.91667H3.33335C2.8299 8.91667 2.41669 8.50345 2.41669 8C2.41669 7.49655 2.8299 7.08333 3.33335 7.08333H6.00002C6.50347 7.08333 6.91669 7.49655 6.91669 8C6.91669 8.50345 6.50347 8.91667 6.00002 8.91667ZM6.66669 6.25H3.33335C2.8299 6.25 2.41669 5.83679 2.41669 5.33333C2.41669 4.82988 2.8299 4.41667 3.33335 4.41667L6.66669 4.41667C7.17014 4.41667 7.58335 4.82988 7.58335 5.33333C7.58335 5.83679 7.17014 6.25 6.66669 6.25Z" fill="#E8D28B" stroke="#E8D28B" stroke-width="0.833333"/>
</svg>
