<svg width="30" height="30" viewBox="0 0 30 30" fill="none" xmlns="http://www.w3.org/2000/svg">
<rect width="30" height="30" rx="15" fill="#E6EFEF"/>
<path d="M18.702 11.762C18.6452 11.7567 18.5882 11.7567 18.5313 11.762C17.7371 11.7214 17.11 11.0659 17.11 10.2597C17.11 9.42885 17.7844 8.74967 18.62 8.74967C19.4504 8.74967 20.1293 9.42335 20.13 10.2583C20.1241 11.0665 19.4953 11.7214 18.702 11.762Z" fill="#005E5E" stroke="#005E5E" stroke-width="0.833333"/>
<path d="M20.8601 16.7998C20.1134 17.2998 19.0667 17.4864 18.1001 17.3598C18.3534 16.8131 18.4867 16.2064 18.4934 15.5664C18.4934 14.8998 18.3467 14.2664 18.0667 13.7131C19.0534 13.5798 20.1001 13.7664 20.8534 14.2664C21.9067 14.9598 21.9067 16.0998 20.8601 16.7998Z" fill="#005E5E"/>
<path d="M11.2934 12.1797C11.34 12.173 11.3867 12.173 11.4334 12.1797C12.4667 12.1463 13.2867 11.2997 13.2867 10.2597C13.2867 9.19301 12.4267 8.33301 11.36 8.33301C10.3 8.33301 9.44002 9.19301 9.44002 10.2597C9.44002 11.2997 10.26 12.1463 11.2934 12.1797Z" fill="#005E5E"/>
<path d="M11.3667 15.5663C11.3667 16.213 11.5067 16.8263 11.76 17.3797C10.82 17.4797 9.83999 17.2797 9.11999 16.8063C8.06665 16.1063 8.06665 14.9663 9.11999 14.2663C9.83332 13.7863 10.84 13.593 11.7867 13.6997C11.5133 14.2597 11.3667 14.893 11.3667 15.5663Z" fill="#005E5E"/>
<path d="M15.08 17.5798C15.0267 17.5731 14.9667 17.5731 14.9067 17.5798C13.68 17.5398 12.7 16.5331 12.7 15.2931C12.7067 14.0264 13.7267 12.9998 15 12.9998C16.2667 12.9998 17.2933 14.0264 17.2933 15.2931C17.2867 16.5331 16.3133 17.5398 15.08 17.5798Z" fill="#005E5E"/>
<path d="M12.9133 18.9598C11.9066 19.6331 11.9066 20.7398 12.9133 21.4064C14.06 22.1731 15.94 22.1731 17.0866 21.4064C18.0933 20.7331 18.0933 19.6264 17.0866 18.9598C15.9466 18.1931 14.0666 18.1931 12.9133 18.9598Z" fill="#005E5E"/>
</svg>
