<svg width="16" height="16" viewBox="0 0 16 16" fill="none" xmlns="http://www.w3.org/2000/svg">
<path d="M10.1668 8.59992V11.3999C10.1668 12.5173 9.9403 13.1693 9.55494 13.5547C9.16959 13.9401 8.51752 14.1666 7.40016 14.1666H4.60016C3.48281 14.1666 2.83074 13.9401 2.44538 13.5547C2.06003 13.1693 1.8335 12.5173 1.8335 11.3999V8.59992C1.8335 7.48257 2.06003 6.83049 2.44538 6.44514C2.83074 6.05978 3.48281 5.83325 4.60016 5.83325H7.40016C8.51752 5.83325 9.16959 6.05978 9.55494 6.44514C9.9403 6.83049 10.1668 7.48257 10.1668 8.59992Z" fill="white" stroke="white"/>
<path d="M11.3998 1.33325H8.59984C6.67914 1.33325 5.71152 1.97018 5.42907 3.49252C5.32748 4.04009 5.79484 4.49992 6.35175 4.49992H7.39984C10.1998 4.49992 11.4998 5.79992 11.4998 8.59992V9.64802C11.4998 10.2049 11.9597 10.6723 12.5072 10.5707C14.0296 10.2882 14.6665 9.32062 14.6665 7.39992V4.59992C14.6665 2.26659 13.7332 1.33325 11.3998 1.33325Z" fill="white"/>
</svg>
