<svg width="25" height="24" viewBox="0 0 25 24" fill="none" xmlns="http://www.w3.org/2000/svg">
<path opacity="0.4" d="M21 10.19H18.11C15.74 10.19 13.81 8.26 13.81 5.89V3C13.81 2.45 13.36 2 12.81 2H8.57C5.49 2 3 4 3 7.57V16.43C3 20 5.49 22 8.57 22H16.43C19.51 22 22 20 22 16.43V11.19C22 10.64 21.55 10.19 21 10.19Z" fill="#005E5E"/>
<path d="M16.3002 2.20999C15.8902 1.79999 15.1802 2.07999 15.1802 2.64999V6.13999C15.1802 7.59999 16.4202 8.80999 17.9302 8.80999C18.8802 8.81999 20.2002 8.81999 21.3302 8.81999C21.9002 8.81999 22.2002 8.14999 21.8002 7.74999C20.3602 6.29999 17.7802 3.68999 16.3002 2.20999Z" fill="#005E5E"/>
</svg>
