<svg width="92" height="73" viewBox="0 0 92 73" fill="none" xmlns="http://www.w3.org/2000/svg">
<path d="M87.5068 -15.1197C92.9605 -20.6997 92.911 -29.8335 86.1636 -33.7516C81.0218 -36.7374 75.4193 -38.9149 69.5502 -40.1799C59.0491 -42.4433 48.1221 -41.6931 38.0287 -38.0159C27.9354 -34.3387 19.0866 -27.8841 12.5024 -19.3961C5.9182 -10.9082 1.86656 -0.732424 0.814506 9.95825C-0.237543 20.6489 1.75283 31.4193 6.55621 41.0278C11.3596 50.6364 18.7804 58.6921 27.9633 64.2662C37.1462 69.8404 47.7174 72.7061 58.4583 72.5332C64.4614 72.4365 70.3809 71.3928 76.006 69.4666C83.3878 66.939 85.2168 57.99 80.9554 51.454C76.694 44.9179 67.7907 43.506 60.0172 44.1782C59.3488 44.236 58.6771 44.2705 58.0034 44.2814C52.5868 44.3686 47.2559 42.9234 42.625 40.1124C37.9942 37.3015 34.2519 33.2391 31.8296 28.3936C29.4073 23.548 28.4036 18.1167 28.9341 12.7254C29.4647 7.33424 31.5079 2.2027 34.8282 -2.07769C38.1486 -6.35809 42.6109 -9.61307 47.7009 -11.4675C52.7909 -13.3218 58.3013 -13.7001 63.5969 -12.5587C64.2556 -12.4168 64.9077 -12.252 65.552 -12.065C73.0453 -9.89039 82.0531 -9.53973 87.5068 -15.1197Z" fill="#005656"/>
</svg>
