<svg width="326" height="56" viewBox="0 0 326 56" fill="none" xmlns="http://www.w3.org/2000/svg">
<rect width="326" height="56" rx="4" fill="#E6EFEF"/>
<path d="M17.9932 19.6666H18.9998C21.0132 19.6666 22.6665 18.0199 22.6665 15.9999C22.6665 13.9866 21.0198 12.3333 18.9998 12.3333H17.9932" stroke="#005E5E" stroke-width="1.5" stroke-linecap="round" stroke-linejoin="round"/>
<path d="M14.0002 12.3333H13.0002C10.9802 12.3333 9.3335 13.9799 9.3335 15.9999C9.3335 18.0133 10.9802 19.6666 13.0002 19.6666H14.0002" stroke="#005E5E" stroke-width="1.5" stroke-linecap="round" stroke-linejoin="round"/>
<path d="M13.3335 16H18.6668" stroke="#005E5E" stroke-width="1.5" stroke-linecap="round" stroke-linejoin="round"/>
<path d="M32.966 23V12.92H34.142V17.246C34.3753 16.8167 34.7067 16.4853 35.136 16.252C35.5653 16.0093 36.032 15.888 36.536 15.888C37.3387 15.888 37.9827 16.14 38.468 16.644C38.9533 17.1387 39.196 17.904 39.196 18.94V23H38.034V19.066C38.034 17.6193 37.4507 16.896 36.284 16.896C35.6773 16.896 35.1687 17.1153 34.758 17.554C34.3473 17.9833 34.142 18.5993 34.142 19.402V23H32.966ZM44.0017 23C43.3671 23 42.8677 22.846 42.5037 22.538C42.1397 22.23 41.9577 21.6747 41.9577 20.872V17.05H40.7537V16.056H41.9577L42.1117 14.39H43.1337V16.056H45.1777V17.05H43.1337V20.872C43.1337 21.3107 43.2224 21.6093 43.3997 21.768C43.5771 21.9173 43.8897 21.992 44.3377 21.992H45.0657V23H44.0017ZM49.6958 23C49.0611 23 48.5618 22.846 48.1978 22.538C47.8338 22.23 47.6518 21.6747 47.6518 20.872V17.05H46.4478V16.056H47.6518L47.8058 14.39H48.8278V16.056H50.8718V17.05H48.8278V20.872C48.8278 21.3107 48.9164 21.6093 49.0938 21.768C49.2711 21.9173 49.5838 21.992 50.0318 21.992H50.7598V23H49.6958ZM52.6458 26.08V16.056H53.7098L53.8218 17.204C54.0458 16.868 54.3632 16.5647 54.7738 16.294C55.1938 16.0233 55.7258 15.888 56.3698 15.888C57.0605 15.888 57.6625 16.0467 58.1758 16.364C58.6892 16.6813 59.0858 17.1153 59.3658 17.666C59.6552 18.2167 59.7998 18.842 59.7998 19.542C59.7998 20.242 59.6552 20.8673 59.3658 21.418C59.0858 21.9593 58.6845 22.3887 58.1618 22.706C57.6485 23.014 57.0465 23.168 56.3558 23.168C55.7865 23.168 55.2778 23.0513 54.8298 22.818C54.3912 22.5847 54.0552 22.258 53.8218 21.838V26.08H52.6458ZM56.2298 22.146C56.6965 22.146 57.1072 22.0387 57.4618 21.824C57.8165 21.6 58.0965 21.292 58.3018 20.9C58.5072 20.508 58.6098 20.0507 58.6098 19.528C58.6098 19.0053 58.5072 18.548 58.3018 18.156C58.0965 17.764 57.8165 17.4607 57.4618 17.246C57.1072 17.022 56.6965 16.91 56.2298 16.91C55.7632 16.91 55.3525 17.022 54.9978 17.246C54.6432 17.4607 54.3632 17.764 54.1578 18.156C53.9525 18.548 53.8498 19.0053 53.8498 19.528C53.8498 20.0507 53.9525 20.508 54.1578 20.9C54.3632 21.292 54.6432 21.6 54.9978 21.824C55.3525 22.0387 55.7632 22.146 56.2298 22.146ZM64.3769 23.168C63.5462 23.168 62.8555 22.958 62.3049 22.538C61.7542 22.118 61.4322 21.5487 61.3389 20.83H62.5429C62.6175 21.194 62.8089 21.5113 63.1169 21.782C63.4342 22.0433 63.8589 22.174 64.3909 22.174C64.8855 22.174 65.2495 22.0713 65.4829 21.866C65.7162 21.6513 65.8329 21.3993 65.8329 21.11C65.8329 20.69 65.6789 20.41 65.3709 20.27C65.0722 20.13 64.6475 20.004 64.0969 19.892C63.7235 19.8173 63.3502 19.71 62.9769 19.57C62.6035 19.43 62.2909 19.234 62.0389 18.982C61.7869 18.7207 61.6609 18.38 61.6609 17.96C61.6609 17.3533 61.8849 16.8587 62.3329 16.476C62.7902 16.084 63.4062 15.888 64.1809 15.888C64.9182 15.888 65.5202 16.0747 65.9869 16.448C66.4629 16.812 66.7382 17.3347 66.8129 18.016H65.6509C65.6042 17.6613 65.4502 17.386 65.1889 17.19C64.9369 16.9847 64.5962 16.882 64.1669 16.882C63.7469 16.882 63.4202 16.9707 63.1869 17.148C62.9629 17.3253 62.8509 17.5587 62.8509 17.848C62.8509 18.128 62.9955 18.3473 63.2849 18.506C63.5835 18.6647 63.9849 18.8 64.4889 18.912C64.9182 19.0053 65.3242 19.122 65.7069 19.262C66.0989 19.3927 66.4162 19.5933 66.6589 19.864C66.9109 20.1253 67.0369 20.508 67.0369 21.012C67.0462 21.6373 66.8082 22.1553 66.3229 22.566C65.8469 22.9673 65.1982 23.168 64.3769 23.168ZM69.4029 23.07C69.1695 23.07 68.9735 22.9953 68.8149 22.846C68.6655 22.6873 68.5909 22.496 68.5909 22.272C68.5909 22.048 68.6655 21.8613 68.8149 21.712C68.9735 21.5533 69.1695 21.474 69.4029 21.474C69.6269 21.474 69.8135 21.5533 69.9629 21.712C70.1215 21.8613 70.2009 22.048 70.2009 22.272C70.2009 22.496 70.1215 22.6873 69.9629 22.846C69.8135 22.9953 69.6269 23.07 69.4029 23.07ZM69.4029 17.484C69.1695 17.484 68.9735 17.4093 68.8149 17.26C68.6655 17.1013 68.5909 16.91 68.5909 16.686C68.5909 16.462 68.6655 16.2753 68.8149 16.126C68.9735 15.9673 69.1695 15.888 69.4029 15.888C69.6269 15.888 69.8135 15.9673 69.9629 16.126C70.1215 16.2753 70.2009 16.462 70.2009 16.686C70.2009 16.91 70.1215 17.1013 69.9629 17.26C69.8135 17.4093 69.6269 17.484 69.4029 17.484ZM71.4919 24.33L75.0059 12.304H76.1679L72.6539 24.33H71.4919ZM75.559 24.33L79.073 12.304H80.235L76.721 24.33H75.559ZM84.3755 23.168C83.6849 23.168 83.0782 23.0093 82.5555 22.692C82.0422 22.3747 81.6409 21.9407 81.3515 21.39C81.0715 20.8393 80.9315 20.214 80.9315 19.514C80.9315 18.814 81.0762 18.1933 81.3655 17.652C81.6549 17.1013 82.0562 16.672 82.5695 16.364C83.0829 16.0467 83.6895 15.888 84.3895 15.888C84.9589 15.888 85.4629 16.0047 85.9015 16.238C86.3402 16.4713 86.6809 16.798 86.9235 17.218V12.92H88.0995V23H87.0355L86.9235 21.852C86.6995 22.188 86.3775 22.4913 85.9575 22.762C85.5375 23.0327 85.0102 23.168 84.3755 23.168ZM84.5015 22.146C84.9682 22.146 85.3789 22.0387 85.7335 21.824C86.0975 21.6 86.3775 21.292 86.5735 20.9C86.7789 20.508 86.8815 20.0507 86.8815 19.528C86.8815 19.0053 86.7789 18.548 86.5735 18.156C86.3775 17.764 86.0975 17.4607 85.7335 17.246C85.3789 17.022 84.9682 16.91 84.5015 16.91C84.0442 16.91 83.6335 17.022 83.2695 17.246C82.9149 17.4607 82.6349 17.764 82.4295 18.156C82.2335 18.548 82.1355 19.0053 82.1355 19.528C82.1355 20.0507 82.2335 20.508 82.4295 20.9C82.6349 21.292 82.9149 21.6 83.2695 21.824C83.6335 22.0387 84.0442 22.146 84.5015 22.146ZM90.2965 23V12.92H91.4725V18.982L94.3145 16.056H95.7565L92.6765 19.192L96.1485 23H94.6505L91.4725 19.402V23H90.2965ZM98.4012 14.516C98.1772 14.516 97.9859 14.4413 97.8272 14.292C97.6686 14.1333 97.5892 13.9373 97.5892 13.704C97.5892 13.48 97.6686 13.2933 97.8272 13.144C97.9859 12.9947 98.1772 12.92 98.4012 12.92C98.6252 12.92 98.8119 12.9947 98.9612 13.144C99.1199 13.2933 99.1992 13.48 99.1992 13.704C99.1992 13.9373 99.1199 14.1333 98.9612 14.292C98.8119 14.4413 98.6252 14.516 98.4012 14.516ZM96.2732 26.08V25.072H96.8192C97.1646 25.072 97.4119 24.9973 97.5612 24.848C97.7199 24.708 97.7992 24.4653 97.7992 24.12V16.056H98.9752V24.148C98.9752 24.82 98.8072 25.31 98.4712 25.618C98.1352 25.926 97.6452 26.08 97.0012 26.08H96.2732ZM104.452 23.168C103.761 23.168 103.155 23.0093 102.632 22.692C102.119 22.3747 101.717 21.9407 101.428 21.39C101.148 20.8393 101.008 20.214 101.008 19.514C101.008 18.814 101.153 18.1933 101.442 17.652C101.731 17.1013 102.133 16.672 102.646 16.364C103.159 16.0467 103.766 15.888 104.466 15.888C105.035 15.888 105.539 16.0047 105.978 16.238C106.417 16.4713 106.757 16.798 107 17.218V12.92H108.176V23H107.112L107 21.852C106.776 22.188 106.454 22.4913 106.034 22.762C105.614 23.0327 105.087 23.168 104.452 23.168ZM104.578 22.146C105.045 22.146 105.455 22.0387 105.81 21.824C106.174 21.6 106.454 21.292 106.65 20.9C106.855 20.508 106.958 20.0507 106.958 19.528C106.958 19.0053 106.855 18.548 106.65 18.156C106.454 17.764 106.174 17.4607 105.81 17.246C105.455 17.022 105.045 16.91 104.578 16.91C104.121 16.91 103.71 17.022 103.346 17.246C102.991 17.4607 102.711 17.764 102.506 18.156C102.31 18.548 102.212 19.0053 102.212 19.528C102.212 20.0507 102.31 20.508 102.506 20.9C102.711 21.292 102.991 21.6 103.346 21.824C103.71 22.0387 104.121 22.146 104.578 22.146ZM114.083 23.168C113.514 23.168 113.005 23.0513 112.557 22.818C112.118 22.5847 111.782 22.258 111.549 21.838L111.437 23H110.373V12.92H111.549V17.204C111.773 16.868 112.09 16.5647 112.501 16.294C112.921 16.0233 113.453 15.888 114.097 15.888C114.788 15.888 115.39 16.0467 115.903 16.364C116.416 16.6813 116.813 17.1153 117.093 17.666C117.382 18.2167 117.527 18.842 117.527 19.542C117.527 20.242 117.382 20.8673 117.093 21.418C116.813 21.9593 116.412 22.3887 115.889 22.706C115.376 23.014 114.774 23.168 114.083 23.168ZM113.957 22.146C114.424 22.146 114.834 22.0387 115.189 21.824C115.544 21.6 115.824 21.292 116.029 20.9C116.234 20.508 116.337 20.0507 116.337 19.528C116.337 19.0053 116.234 18.548 116.029 18.156C115.824 17.764 115.544 17.4607 115.189 17.246C114.834 17.022 114.424 16.91 113.957 16.91C113.49 16.91 113.08 17.022 112.725 17.246C112.37 17.4607 112.09 17.764 111.885 18.156C111.68 18.548 111.577 19.0053 111.577 19.528C111.577 20.0507 111.68 20.508 111.885 20.9C112.09 21.292 112.37 21.6 112.725 21.824C113.08 22.0387 113.49 22.146 113.957 22.146ZM119.444 23V12.92H120.62V18.982L123.462 16.056H124.904L121.824 19.192L125.296 23H123.798L120.62 19.402V23H119.444ZM127.549 14.516C127.325 14.516 127.133 14.4413 126.975 14.292C126.816 14.1333 126.737 13.9373 126.737 13.704C126.737 13.48 126.816 13.2933 126.975 13.144C127.133 12.9947 127.325 12.92 127.549 12.92C127.773 12.92 127.959 12.9947 128.109 13.144C128.267 13.2933 128.347 13.48 128.347 13.704C128.347 13.9373 128.267 14.1333 128.109 14.292C127.959 14.4413 127.773 14.516 127.549 14.516ZM125.421 26.08V25.072H125.967C126.312 25.072 126.559 24.9973 126.709 24.848C126.867 24.708 126.947 24.4653 126.947 24.12V16.056H128.123V24.148C128.123 24.82 127.955 25.31 127.619 25.618C127.283 25.926 126.793 26.08 126.149 26.08H125.421ZM131.219 14.516C130.995 14.516 130.804 14.4413 130.645 14.292C130.487 14.1333 130.407 13.9373 130.407 13.704C130.407 13.48 130.487 13.2933 130.645 13.144C130.804 12.9947 130.995 12.92 131.219 12.92C131.443 12.92 131.63 12.9947 131.779 13.144C131.938 13.2933 132.017 13.48 132.017 13.704C132.017 13.9373 131.938 14.1333 131.779 14.292C131.63 14.4413 131.443 14.516 131.219 14.516ZM129.091 26.08V25.072H129.637C129.983 25.072 130.23 24.9973 130.379 24.848C130.538 24.708 130.617 24.4653 130.617 24.12V16.056H131.793V24.148C131.793 24.82 131.625 25.31 131.289 25.618C130.953 25.926 130.463 26.08 129.819 26.08H129.091ZM134.12 23V12.92H135.296V17.246C135.529 16.8167 135.86 16.4853 136.29 16.252C136.719 16.0093 137.186 15.888 137.69 15.888C138.492 15.888 139.136 16.14 139.622 16.644C140.107 17.1387 140.35 17.904 140.35 18.94V23H139.188V19.066C139.188 17.6193 138.604 16.896 137.438 16.896C136.831 16.896 136.322 17.1153 135.912 17.554C135.501 17.9833 135.296 18.5993 135.296 19.402V23H134.12ZM142.412 23V12.92H143.588V17.246C143.821 16.8167 144.152 16.4853 144.582 16.252C145.011 16.0093 145.478 15.888 145.982 15.888C146.784 15.888 147.428 16.14 147.914 16.644C148.399 17.1387 148.642 17.904 148.642 18.94V23H147.48V19.066C147.48 17.6193 146.896 16.896 145.73 16.896C145.123 16.896 144.614 17.1153 144.204 17.554C143.793 17.9833 143.588 18.5993 143.588 19.402V23H142.412ZM153.853 23.168C153.163 23.168 152.556 23.0093 152.033 22.692C151.52 22.3747 151.119 21.9407 150.829 21.39C150.549 20.8393 150.409 20.214 150.409 19.514C150.409 18.814 150.554 18.1933 150.843 17.652C151.133 17.1013 151.534 16.672 152.047 16.364C152.561 16.0467 153.167 15.888 153.867 15.888C154.437 15.888 154.941 16.0047 155.379 16.238C155.818 16.4713 156.159 16.798 156.401 17.218V12.92H157.577V23H156.513L156.401 21.852C156.177 22.188 155.855 22.4913 155.435 22.762C155.015 23.0327 154.488 23.168 153.853 23.168ZM153.979 22.146C154.446 22.146 154.857 22.0387 155.211 21.824C155.575 21.6 155.855 21.292 156.051 20.9C156.257 20.508 156.359 20.0507 156.359 19.528C156.359 19.0053 156.257 18.548 156.051 18.156C155.855 17.764 155.575 17.4607 155.211 17.246C154.857 17.022 154.446 16.91 153.979 16.91C153.522 16.91 153.111 17.022 152.747 17.246C152.393 17.4607 152.113 17.764 151.907 18.156C151.711 18.548 151.613 19.0053 151.613 19.528C151.613 20.0507 151.711 20.508 151.907 20.9C152.113 21.292 152.393 21.6 152.747 21.824C153.111 22.0387 153.522 22.146 153.979 22.146ZM159.774 23V12.92H160.95V18.982L163.792 16.056H165.234L162.154 19.192L165.626 23H164.128L160.95 19.402V23H159.774ZM167.879 14.516C167.655 14.516 167.464 14.4413 167.305 14.292C167.146 14.1333 167.067 13.9373 167.067 13.704C167.067 13.48 167.146 13.2933 167.305 13.144C167.464 12.9947 167.655 12.92 167.879 12.92C168.103 12.92 168.29 12.9947 168.439 13.144C168.598 13.2933 168.677 13.48 168.677 13.704C168.677 13.9373 168.598 14.1333 168.439 14.292C168.29 14.4413 168.103 14.516 167.879 14.516ZM165.751 26.08V25.072H166.297C166.642 25.072 166.89 24.9973 167.039 24.848C167.198 24.708 167.277 24.4653 167.277 24.12V16.056H168.453V24.148C168.453 24.82 168.285 25.31 167.949 25.618C167.613 25.926 167.123 26.08 166.479 26.08H165.751ZM173.93 23.168C173.239 23.168 172.632 23.0093 172.11 22.692C171.596 22.3747 171.195 21.9407 170.906 21.39C170.626 20.8393 170.486 20.214 170.486 19.514C170.486 18.814 170.63 18.1933 170.92 17.652C171.209 17.1013 171.61 16.672 172.124 16.364C172.637 16.0467 173.244 15.888 173.944 15.888C174.513 15.888 175.017 16.0047 175.456 16.238C175.894 16.4713 176.235 16.798 176.478 17.218V12.92H177.654V23H176.59L176.478 21.852C176.254 22.188 175.932 22.4913 175.512 22.762C175.092 23.0327 174.564 23.168 173.93 23.168ZM174.056 22.146C174.522 22.146 174.933 22.0387 175.288 21.824C175.652 21.6 175.932 21.292 176.128 20.9C176.333 20.508 176.436 20.0507 176.436 19.528C176.436 19.0053 176.333 18.548 176.128 18.156C175.932 17.764 175.652 17.4607 175.288 17.246C174.933 17.022 174.522 16.91 174.056 16.91C173.598 16.91 173.188 17.022 172.824 17.246C172.469 17.4607 172.189 17.764 171.984 18.156C171.788 18.548 171.69 19.0053 171.69 19.528C171.69 20.0507 171.788 20.508 171.984 20.9C172.189 21.292 172.469 21.6 172.824 21.824C173.188 22.0387 173.598 22.146 174.056 22.146ZM182.595 20.816C182.203 20.816 181.843 20.7647 181.517 20.662L180.817 21.32C180.919 21.3947 181.045 21.46 181.195 21.516C181.353 21.5627 181.577 21.6093 181.867 21.656C182.156 21.6933 182.562 21.7353 183.085 21.782C184.018 21.8473 184.685 22.062 185.087 22.426C185.488 22.79 185.689 23.266 185.689 23.854C185.689 24.2553 185.577 24.638 185.353 25.002C185.138 25.366 184.802 25.6647 184.345 25.898C183.897 26.1313 183.318 26.248 182.609 26.248C181.983 26.248 181.428 26.164 180.943 25.996C180.457 25.8373 180.079 25.59 179.809 25.254C179.538 24.9273 179.403 24.512 179.403 24.008C179.403 23.7467 179.473 23.462 179.613 23.154C179.753 22.8553 180.014 22.5707 180.397 22.3C180.191 22.216 180.014 22.1273 179.865 22.034C179.725 21.9313 179.594 21.8193 179.473 21.698V21.376L180.663 20.2C180.112 19.7333 179.837 19.1173 179.837 18.352C179.837 17.8947 179.944 17.4793 180.159 17.106C180.373 16.7327 180.686 16.4387 181.097 16.224C181.507 16 182.007 15.888 182.595 15.888C182.996 15.888 183.36 15.944 183.687 16.056H186.249V16.938L184.947 16.994C185.217 17.386 185.353 17.8387 185.353 18.352C185.353 18.8093 185.241 19.2247 185.017 19.598C184.802 19.9713 184.489 20.27 184.079 20.494C183.677 20.7087 183.183 20.816 182.595 20.816ZM182.595 19.85C183.089 19.85 183.481 19.724 183.771 19.472C184.069 19.2107 184.219 18.8373 184.219 18.352C184.219 17.876 184.069 17.512 183.771 17.26C183.481 16.9987 183.089 16.868 182.595 16.868C182.091 16.868 181.689 16.9987 181.391 17.26C181.101 17.512 180.957 17.876 180.957 18.352C180.957 18.8373 181.101 19.2107 181.391 19.472C181.689 19.724 182.091 19.85 182.595 19.85ZM180.551 23.896C180.551 24.3627 180.747 24.708 181.139 24.932C181.531 25.1653 182.021 25.282 182.609 25.282C183.187 25.282 183.649 25.156 183.995 24.904C184.349 24.652 184.527 24.316 184.527 23.896C184.527 23.5973 184.405 23.336 184.163 23.112C183.92 22.8973 183.472 22.7713 182.819 22.734C182.305 22.6967 181.862 22.65 181.489 22.594C181.106 22.7993 180.854 23.0187 180.733 23.252C180.611 23.4947 180.551 23.7093 180.551 23.896ZM190.732 23.168C190.041 23.168 189.434 23.0093 188.912 22.692C188.398 22.3747 187.997 21.9407 187.708 21.39C187.428 20.8393 187.288 20.214 187.288 19.514C187.288 18.814 187.432 18.1933 187.722 17.652C188.011 17.1013 188.412 16.672 188.926 16.364C189.439 16.0467 190.046 15.888 190.746 15.888C191.315 15.888 191.819 16.0047 192.258 16.238C192.696 16.4713 193.037 16.798 193.28 17.218V12.92H194.456V23H193.392L193.28 21.852C193.056 22.188 192.734 22.4913 192.314 22.762C191.894 23.0327 191.366 23.168 190.732 23.168ZM190.858 22.146C191.324 22.146 191.735 22.0387 192.09 21.824C192.454 21.6 192.734 21.292 192.93 20.9C193.135 20.508 193.238 20.0507 193.238 19.528C193.238 19.0053 193.135 18.548 192.93 18.156C192.734 17.764 192.454 17.4607 192.09 17.246C191.735 17.022 191.324 16.91 190.858 16.91C190.4 16.91 189.99 17.022 189.626 17.246C189.271 17.4607 188.991 17.764 188.786 18.156C188.59 18.548 188.492 19.0053 188.492 19.528C188.492 20.0507 188.59 20.508 188.786 20.9C188.991 21.292 189.271 21.6 189.626 21.824C189.99 22.0387 190.4 22.146 190.858 22.146ZM197.367 14.516C197.133 14.516 196.937 14.4413 196.779 14.292C196.629 14.1333 196.555 13.9373 196.555 13.704C196.555 13.48 196.629 13.2933 196.779 13.144C196.937 12.9947 197.133 12.92 197.367 12.92C197.591 12.92 197.782 12.9947 197.941 13.144C198.099 13.2933 198.179 13.48 198.179 13.704C198.179 13.9373 198.099 14.1333 197.941 14.292C197.782 14.4413 197.591 14.516 197.367 14.516ZM196.779 23V16.056H197.955V23H196.779ZM202.816 23.168C201.995 23.168 201.342 22.9207 200.856 22.426C200.371 21.922 200.128 21.152 200.128 20.116V16.056H201.304V19.99C201.304 21.4367 201.897 22.16 203.082 22.16C203.689 22.16 204.188 21.9453 204.58 21.516C204.982 21.0773 205.182 20.4567 205.182 19.654V16.056H206.358V23H205.294L205.21 21.754C204.996 22.1927 204.674 22.538 204.244 22.79C203.824 23.042 203.348 23.168 202.816 23.168ZM208.574 23V12.92H209.75V17.246C209.983 16.8167 210.315 16.4853 210.744 16.252C211.173 16.0093 211.64 15.888 212.144 15.888C212.947 15.888 213.591 16.14 214.076 16.644C214.561 17.1387 214.804 17.904 214.804 18.94V23H213.642V19.066C213.642 17.6193 213.059 16.896 211.892 16.896C211.285 16.896 210.777 17.1153 210.366 17.554C209.955 17.9833 209.75 18.5993 209.75 19.402V23H208.574ZM220.016 23.168C219.325 23.168 218.719 23.0093 218.196 22.692C217.683 22.3747 217.281 21.9407 216.992 21.39C216.712 20.8393 216.572 20.214 216.572 19.514C216.572 18.814 216.717 18.1933 217.006 17.652C217.295 17.1013 217.697 16.672 218.21 16.364C218.723 16.0467 219.33 15.888 220.03 15.888C220.599 15.888 221.103 16.0047 221.542 16.238C221.981 16.4713 222.321 16.798 222.564 17.218V12.92H223.74V23H222.676L222.564 21.852C222.34 22.188 222.018 22.4913 221.598 22.762C221.178 23.0327 220.651 23.168 220.016 23.168ZM220.142 22.146C220.609 22.146 221.019 22.0387 221.374 21.824C221.738 21.6 222.018 21.292 222.214 20.9C222.419 20.508 222.522 20.0507 222.522 19.528C222.522 19.0053 222.419 18.548 222.214 18.156C222.018 17.764 221.738 17.4607 221.374 17.246C221.019 17.022 220.609 16.91 220.142 16.91C219.685 16.91 219.274 17.022 218.91 17.246C218.555 17.4607 218.275 17.764 218.07 18.156C217.874 18.548 217.776 19.0053 217.776 19.528C217.776 20.0507 217.874 20.508 218.07 20.9C218.275 21.292 218.555 21.6 218.91 21.824C219.274 22.0387 219.685 22.146 220.142 22.146ZM225.363 24.33L228.877 12.304H230.039L226.525 24.33H225.363ZM234.511 23.168C233.867 23.168 233.288 23.0513 232.775 22.818C232.262 22.5753 231.856 22.244 231.557 21.824C231.268 21.3947 231.123 20.9 231.123 20.34C231.123 19.7427 231.296 19.206 231.641 18.73C231.996 18.254 232.462 17.9367 233.041 17.778C232.509 17.6007 232.098 17.316 231.809 16.924C231.52 16.532 231.375 16.1027 231.375 15.636C231.375 15.16 231.501 14.726 231.753 14.334C232.005 13.9327 232.364 13.6153 232.831 13.382C233.298 13.1487 233.858 13.032 234.511 13.032C235.164 13.032 235.724 13.1487 236.191 13.382C236.658 13.6153 237.017 13.9327 237.269 14.334C237.521 14.726 237.647 15.16 237.647 15.636C237.647 16.0933 237.502 16.5227 237.213 16.924C236.924 17.316 236.513 17.6007 235.981 17.778C236.56 17.9367 237.022 18.254 237.367 18.73C237.722 19.206 237.899 19.7427 237.899 20.34C237.899 20.9 237.75 21.3947 237.451 21.824C237.162 22.244 236.76 22.5753 236.247 22.818C235.734 23.0513 235.155 23.168 234.511 23.168ZM234.511 17.358C235.108 17.358 235.58 17.2087 235.925 16.91C236.28 16.602 236.457 16.2007 236.457 15.706C236.457 15.1553 236.284 14.74 235.939 14.46C235.594 14.18 235.118 14.04 234.511 14.04C233.904 14.04 233.428 14.18 233.083 14.46C232.747 14.74 232.579 15.1553 232.579 15.706C232.579 16.2007 232.752 16.602 233.097 16.91C233.442 17.2087 233.914 17.358 234.511 17.358ZM234.511 22.132C235.248 22.132 235.799 21.964 236.163 21.628C236.536 21.2827 236.723 20.83 236.723 20.27C236.723 19.6353 236.522 19.1547 236.121 18.828C235.72 18.5013 235.183 18.338 234.511 18.338C233.839 18.338 233.302 18.5013 232.901 18.828C232.5 19.1547 232.299 19.6353 232.299 20.27C232.299 20.83 232.481 21.2827 232.845 21.628C233.218 21.964 233.774 22.132 234.511 22.132ZM243.924 23.168C243.056 23.168 242.305 22.958 241.67 22.538C241.045 22.1087 240.564 21.516 240.228 20.76C239.892 19.9947 239.724 19.108 239.724 18.1C239.724 17.092 239.892 16.21 240.228 15.454C240.564 14.6887 241.045 14.096 241.67 13.676C242.305 13.2467 243.056 13.032 243.924 13.032C244.792 13.032 245.539 13.2467 246.164 13.676C246.789 14.096 247.27 14.6887 247.606 15.454C247.942 16.21 248.11 17.092 248.11 18.1C248.11 19.108 247.942 19.9947 247.606 20.76C247.27 21.516 246.789 22.1087 246.164 22.538C245.539 22.958 244.792 23.168 243.924 23.168ZM243.924 22.132C244.493 22.132 245.002 21.9733 245.45 21.656C245.907 21.3293 246.262 20.8673 246.514 20.27C246.775 19.6633 246.906 18.94 246.906 18.1C246.906 17.26 246.775 16.5413 246.514 15.944C246.262 15.3467 245.907 14.8893 245.45 14.572C245.002 14.2453 244.493 14.082 243.924 14.082C243.345 14.082 242.832 14.2453 242.384 14.572C241.936 14.8893 241.581 15.3467 241.32 15.944C241.059 16.5413 240.928 17.26 240.928 18.1C240.928 18.94 241.059 19.6633 241.32 20.27C241.581 20.8673 241.936 21.3293 242.384 21.656C242.832 21.9733 243.345 22.132 243.924 22.132ZM253.323 23.168C252.707 23.168 252.18 23.0467 251.741 22.804C251.302 22.5613 250.952 22.2393 250.691 21.838C250.439 21.4273 250.285 20.9747 250.229 20.48H251.321C251.414 21.012 251.638 21.4227 251.993 21.712C252.348 22.0013 252.796 22.146 253.337 22.146C254.084 22.146 254.704 21.8007 255.199 21.11C255.694 20.41 255.96 19.3227 255.997 17.848C255.773 18.2867 255.414 18.6693 254.919 18.996C254.434 19.3133 253.846 19.472 253.155 19.472C252.604 19.472 252.082 19.3413 251.587 19.08C251.092 18.8187 250.691 18.4547 250.383 17.988C250.075 17.512 249.921 16.9567 249.921 16.322C249.921 15.7713 250.056 15.244 250.327 14.74C250.607 14.236 250.999 13.8253 251.503 13.508C252.007 13.1907 252.609 13.032 253.309 13.032C254.018 13.032 254.616 13.1673 255.101 13.438C255.586 13.6993 255.974 14.054 256.263 14.502C256.562 14.95 256.776 15.454 256.907 16.014C257.047 16.5647 257.117 17.1293 257.117 17.708C257.117 18.7907 256.968 19.7427 256.669 20.564C256.37 21.376 255.936 22.0153 255.367 22.482C254.807 22.9393 254.126 23.168 253.323 23.168ZM253.393 18.45C253.832 18.45 254.224 18.352 254.569 18.156C254.914 17.9507 255.19 17.68 255.395 17.344C255.6 17.008 255.703 16.644 255.703 16.252C255.703 15.832 255.6 15.4587 255.395 15.132C255.19 14.796 254.914 14.5347 254.569 14.348C254.224 14.1613 253.832 14.068 253.393 14.068C252.954 14.068 252.562 14.1613 252.217 14.348C251.872 14.5347 251.601 14.796 251.405 15.132C251.209 15.4587 251.111 15.8367 251.111 16.266C251.111 16.9287 251.326 17.4607 251.755 17.862C252.194 18.254 252.74 18.45 253.393 18.45ZM263.009 23.168C262.141 23.168 261.39 22.958 260.755 22.538C260.13 22.1087 259.649 21.516 259.313 20.76C258.977 19.9947 258.809 19.108 258.809 18.1C258.809 17.092 258.977 16.21 259.313 15.454C259.649 14.6887 260.13 14.096 260.755 13.676C261.39 13.2467 262.141 13.032 263.009 13.032C263.877 13.032 264.624 13.2467 265.249 13.676C265.875 14.096 266.355 14.6887 266.691 15.454C267.027 16.21 267.195 17.092 267.195 18.1C267.195 19.108 267.027 19.9947 266.691 20.76C266.355 21.516 265.875 22.1087 265.249 22.538C264.624 22.958 263.877 23.168 263.009 23.168ZM263.009 22.132C263.579 22.132 264.087 21.9733 264.535 21.656C264.993 21.3293 265.347 20.8673 265.599 20.27C265.861 19.6633 265.991 18.94 265.991 18.1C265.991 17.26 265.861 16.5413 265.599 15.944C265.347 15.3467 264.993 14.8893 264.535 14.572C264.087 14.2453 263.579 14.082 263.009 14.082C262.431 14.082 261.917 14.2453 261.469 14.572C261.021 14.8893 260.667 15.3467 260.405 15.944C260.144 16.5413 260.013 17.26 260.013 18.1C260.013 18.94 260.144 19.6633 260.405 20.27C260.667 20.8673 261.021 21.3293 261.469 21.656C261.917 21.9733 262.431 22.132 263.009 22.132ZM267.97 24.33L271.484 12.304H272.646L269.132 24.33H267.97ZM35.71 43C35.0753 43 34.576 42.846 34.212 42.538C33.848 42.23 33.666 41.6747 33.666 40.872V37.05H32.462V36.056H33.666L33.82 34.39H34.842V36.056H36.886V37.05H34.842V40.872C34.842 41.3107 34.9307 41.6093 35.108 41.768C35.2853 41.9173 35.598 41.992 36.046 41.992H36.774V43H35.71ZM41.5907 43.168C40.928 43.168 40.34 43.0187 39.8267 42.72C39.3133 42.412 38.9073 41.9873 38.6087 41.446C38.3193 40.9047 38.1747 40.2653 38.1747 39.528C38.1747 38.8 38.3193 38.1653 38.6087 37.624C38.898 37.0733 39.2993 36.6487 39.8127 36.35C40.3353 36.042 40.9373 35.888 41.6187 35.888C42.2907 35.888 42.8693 36.042 43.3547 36.35C43.8493 36.6487 44.2273 37.0453 44.4887 37.54C44.75 38.0347 44.8807 38.5667 44.8807 39.136C44.8807 39.2387 44.876 39.3413 44.8667 39.444C44.8667 39.5467 44.8667 39.6633 44.8667 39.794H39.3367C39.3647 40.326 39.486 40.7693 39.7007 41.124C39.9247 41.4693 40.2 41.7307 40.5267 41.908C40.8627 42.0853 41.2173 42.174 41.5907 42.174C42.076 42.174 42.482 42.062 42.8087 41.838C43.1353 41.614 43.3733 41.3107 43.5227 40.928H44.6847C44.498 41.572 44.1387 42.1087 43.6067 42.538C43.084 42.958 42.412 43.168 41.5907 43.168ZM41.5907 36.882C41.0307 36.882 40.5313 37.0547 40.0927 37.4C39.6633 37.736 39.416 38.2307 39.3507 38.884H43.7187C43.6907 38.2587 43.476 37.7687 43.0747 37.414C42.6733 37.0593 42.1787 36.882 41.5907 36.882ZM49.0294 43.168C48.4507 43.168 47.97 43.07 47.5874 42.874C47.2047 42.678 46.92 42.4167 46.7334 42.09C46.5467 41.7633 46.4534 41.4087 46.4534 41.026C46.4534 40.3167 46.724 39.7707 47.2654 39.388C47.8067 39.0053 48.544 38.814 49.4774 38.814H51.3534V38.73C51.3534 38.1233 51.1947 37.666 50.8774 37.358C50.56 37.0407 50.1354 36.882 49.6034 36.882C49.146 36.882 48.7494 36.9987 48.4134 37.232C48.0867 37.456 47.8814 37.7873 47.7974 38.226H46.5934C46.64 37.722 46.808 37.2973 47.0974 36.952C47.396 36.6067 47.7647 36.3453 48.2034 36.168C48.642 35.9813 49.1087 35.888 49.6034 35.888C50.574 35.888 51.302 36.1493 51.7874 36.672C52.282 37.1853 52.5294 37.8713 52.5294 38.73V43H51.4794L51.4094 41.754C51.2134 42.146 50.924 42.482 50.5414 42.762C50.168 43.0327 49.664 43.168 49.0294 43.168ZM49.2114 42.174C49.6594 42.174 50.042 42.0573 50.3594 41.824C50.686 41.5907 50.9334 41.2873 51.1014 40.914C51.2694 40.5407 51.3534 40.1487 51.3534 39.738V39.724H49.5754C48.8847 39.724 48.3947 39.8453 48.1054 40.088C47.8254 40.3213 47.6854 40.6153 47.6854 40.97C47.6854 41.334 47.816 41.628 48.0774 41.852C48.348 42.0667 48.726 42.174 49.2114 42.174ZM57.2336 43.168C56.4029 43.168 55.7122 42.958 55.1616 42.538C54.6109 42.118 54.2889 41.5487 54.1956 40.83H55.3996C55.4742 41.194 55.6656 41.5113 55.9736 41.782C56.2909 42.0433 56.7156 42.174 57.2476 42.174C57.7422 42.174 58.1062 42.0713 58.3396 41.866C58.5729 41.6513 58.6896 41.3993 58.6896 41.11C58.6896 40.69 58.5356 40.41 58.2276 40.27C57.9289 40.13 57.5042 40.004 56.9536 39.892C56.5802 39.8173 56.2069 39.71 55.8336 39.57C55.4602 39.43 55.1476 39.234 54.8956 38.982C54.6436 38.7207 54.5176 38.38 54.5176 37.96C54.5176 37.3533 54.7416 36.8587 55.1896 36.476C55.6469 36.084 56.2629 35.888 57.0376 35.888C57.7749 35.888 58.3769 36.0747 58.8436 36.448C59.3196 36.812 59.5949 37.3347 59.6696 38.016H58.5076C58.4609 37.6613 58.3069 37.386 58.0456 37.19C57.7936 36.9847 57.4529 36.882 57.0236 36.882C56.6036 36.882 56.2769 36.9707 56.0436 37.148C55.8196 37.3253 55.7076 37.5587 55.7076 37.848C55.7076 38.128 55.8522 38.3473 56.1416 38.506C56.4402 38.6647 56.8416 38.8 57.3456 38.912C57.7749 39.0053 58.1809 39.122 58.5636 39.262C58.9556 39.3927 59.2729 39.5933 59.5156 39.864C59.7676 40.1253 59.8936 40.508 59.8936 41.012C59.9029 41.6373 59.6649 42.1553 59.1796 42.566C58.7036 42.9673 58.0549 43.168 57.2336 43.168ZM64.1636 43.168C63.5849 43.168 63.1042 43.07 62.7216 42.874C62.3389 42.678 62.0542 42.4167 61.8676 42.09C61.6809 41.7633 61.5876 41.4087 61.5876 41.026C61.5876 40.3167 61.8582 39.7707 62.3996 39.388C62.9409 39.0053 63.6782 38.814 64.6116 38.814H66.4876V38.73C66.4876 38.1233 66.3289 37.666 66.0116 37.358C65.6942 37.0407 65.2696 36.882 64.7376 36.882C64.2802 36.882 63.8836 36.9987 63.5476 37.232C63.2209 37.456 63.0156 37.7873 62.9316 38.226H61.7276C61.7742 37.722 61.9422 37.2973 62.2316 36.952C62.5302 36.6067 62.8989 36.3453 63.3376 36.168C63.7762 35.9813 64.2429 35.888 64.7376 35.888C65.7082 35.888 66.4362 36.1493 66.9216 36.672C67.4162 37.1853 67.6636 37.8713 67.6636 38.73V43H66.6136L66.5436 41.754C66.3476 42.146 66.0582 42.482 65.6756 42.762C65.3022 43.0327 64.7982 43.168 64.1636 43.168ZM64.3456 42.174C64.7936 42.174 65.1762 42.0573 65.4936 41.824C65.8202 41.5907 66.0676 41.2873 66.2356 40.914C66.4036 40.5407 66.4876 40.1487 66.4876 39.738V39.724H64.7096C64.0189 39.724 63.5289 39.8453 63.2396 40.088C62.9596 40.3213 62.8196 40.6153 62.8196 40.97C62.8196 41.334 62.9502 41.628 63.2116 41.852C63.4822 42.0667 63.8602 42.174 64.3456 42.174ZM70.9711 43L68.9411 36.056H70.1171L71.5871 41.502L73.2111 36.056H74.5411L76.1791 41.502L77.6351 36.056H78.8251L76.7951 43H75.5911L73.8831 37.274L72.1751 43H70.9711ZM82.4697 43.168C81.891 43.168 81.4103 43.07 81.0277 42.874C80.645 42.678 80.3603 42.4167 80.1737 42.09C79.987 41.7633 79.8937 41.4087 79.8937 41.026C79.8937 40.3167 80.1643 39.7707 80.7057 39.388C81.247 39.0053 81.9843 38.814 82.9177 38.814H84.7937V38.73C84.7937 38.1233 84.635 37.666 84.3177 37.358C84.0003 37.0407 83.5757 36.882 83.0437 36.882C82.5863 36.882 82.1897 36.9987 81.8537 37.232C81.527 37.456 81.3217 37.7873 81.2377 38.226H80.0337C80.0803 37.722 80.2483 37.2973 80.5377 36.952C80.8363 36.6067 81.205 36.3453 81.6437 36.168C82.0823 35.9813 82.549 35.888 83.0437 35.888C84.0143 35.888 84.7423 36.1493 85.2277 36.672C85.7223 37.1853 85.9697 37.8713 85.9697 38.73V43H84.9197L84.8497 41.754C84.6537 42.146 84.3643 42.482 83.9817 42.762C83.6083 43.0327 83.1043 43.168 82.4697 43.168ZM82.6517 42.174C83.0997 42.174 83.4823 42.0573 83.7997 41.824C84.1263 41.5907 84.3737 41.2873 84.5417 40.914C84.7097 40.5407 84.7937 40.1487 84.7937 39.738V39.724H83.0157C82.325 39.724 81.835 39.8453 81.5457 40.088C81.2657 40.3213 81.1257 40.6153 81.1257 40.97C81.1257 41.334 81.2563 41.628 81.5177 41.852C81.7883 42.0667 82.1663 42.174 82.6517 42.174ZM90.5479 43.168C89.7266 43.168 89.0732 42.9207 88.5879 42.426C88.1026 41.922 87.8599 41.152 87.8599 40.116V36.056H89.0359V39.99C89.0359 41.4367 89.6286 42.16 90.8139 42.16C91.4206 42.16 91.9199 41.9453 92.3119 41.516C92.7132 41.0773 92.9139 40.4567 92.9139 39.654V36.056H94.0899V43H93.0259L92.9419 41.754C92.7272 42.1927 92.4052 42.538 91.9759 42.79C91.5559 43.042 91.0799 43.168 90.5479 43.168ZM98.8396 43.168C98.0183 43.168 97.3649 42.9207 96.8796 42.426C96.3943 41.922 96.1516 41.152 96.1516 40.116V36.056H97.3276V39.99C97.3276 41.4367 97.9203 42.16 99.1056 42.16C99.7123 42.16 100.212 41.9453 100.604 41.516C101.005 41.0773 101.206 40.4567 101.206 39.654V36.056H102.382V43H101.318L101.234 41.754C101.019 42.1927 100.697 42.538 100.268 42.79C99.8476 43.042 99.3716 43.168 98.8396 43.168ZM104.597 43V32.92H105.773V37.246C106.007 36.8167 106.338 36.4853 106.767 36.252C107.197 36.0093 107.663 35.888 108.167 35.888C108.97 35.888 109.614 36.14 110.099 36.644C110.585 37.1387 110.827 37.904 110.827 38.94V43H109.665V39.066C109.665 37.6193 109.082 36.896 107.915 36.896C107.309 36.896 106.8 37.1153 106.389 37.554C105.979 37.9833 105.773 38.5993 105.773 39.402V43H104.597ZM113.659 34.516C113.435 34.516 113.244 34.4413 113.085 34.292C112.926 34.1333 112.847 33.9373 112.847 33.704C112.847 33.48 112.926 33.2933 113.085 33.144C113.244 32.9947 113.435 32.92 113.659 32.92C113.883 32.92 114.07 32.9947 114.219 33.144C114.378 33.2933 114.457 33.48 114.457 33.704C114.457 33.9373 114.378 34.1333 114.219 34.292C114.07 34.4413 113.883 34.516 113.659 34.516ZM111.531 46.08V45.072H112.077C112.422 45.072 112.67 44.9973 112.819 44.848C112.978 44.708 113.057 44.4653 113.057 44.12V36.056H114.233V44.148C114.233 44.82 114.065 45.31 113.729 45.618C113.393 45.926 112.903 46.08 112.259 46.08H111.531ZM122.258 46.08V41.852C122.034 42.188 121.712 42.4913 121.292 42.762C120.872 43.0327 120.344 43.168 119.71 43.168C119.019 43.168 118.412 43.0093 117.89 42.692C117.376 42.3747 116.975 41.9407 116.686 41.39C116.406 40.8393 116.266 40.214 116.266 39.514C116.266 38.814 116.41 38.1933 116.7 37.652C116.989 37.1013 117.39 36.672 117.904 36.364C118.417 36.0467 119.024 35.888 119.724 35.888C120.293 35.888 120.797 36.0047 121.236 36.238C121.674 36.4713 122.015 36.798 122.258 37.218L122.37 36.056H123.434V46.08H122.258ZM119.836 42.146C120.302 42.146 120.713 42.0387 121.068 41.824C121.432 41.6 121.712 41.292 121.908 40.9C122.113 40.508 122.216 40.0507 122.216 39.528C122.216 39.0053 122.113 38.548 121.908 38.156C121.712 37.764 121.432 37.4607 121.068 37.246C120.713 37.022 120.302 36.91 119.836 36.91C119.378 36.91 118.968 37.022 118.604 37.246C118.249 37.4607 117.969 37.764 117.764 38.156C117.568 38.548 117.47 39.0053 117.47 39.528C117.47 40.0507 117.568 40.508 117.764 40.9C117.969 41.292 118.249 41.6 118.604 41.824C118.968 42.0387 119.378 42.146 119.836 42.146ZM128.375 40.816C127.983 40.816 127.623 40.7647 127.297 40.662L126.597 41.32C126.699 41.3947 126.825 41.46 126.975 41.516C127.133 41.5627 127.357 41.6093 127.647 41.656C127.936 41.6933 128.342 41.7353 128.865 41.782C129.798 41.8473 130.465 42.062 130.867 42.426C131.268 42.79 131.469 43.266 131.469 43.854C131.469 44.2553 131.357 44.638 131.133 45.002C130.918 45.366 130.582 45.6647 130.125 45.898C129.677 46.1313 129.098 46.248 128.389 46.248C127.763 46.248 127.208 46.164 126.723 45.996C126.237 45.8373 125.859 45.59 125.589 45.254C125.318 44.9273 125.183 44.512 125.183 44.008C125.183 43.7467 125.253 43.462 125.393 43.154C125.533 42.8553 125.794 42.5707 126.177 42.3C125.971 42.216 125.794 42.1273 125.645 42.034C125.505 41.9313 125.374 41.8193 125.253 41.698V41.376L126.443 40.2C125.892 39.7333 125.617 39.1173 125.617 38.352C125.617 37.8947 125.724 37.4793 125.939 37.106C126.153 36.7327 126.466 36.4387 126.877 36.224C127.287 36 127.787 35.888 128.375 35.888C128.776 35.888 129.14 35.944 129.467 36.056H132.029V36.938L130.727 36.994C130.997 37.386 131.133 37.8387 131.133 38.352C131.133 38.8093 131.021 39.2247 130.797 39.598C130.582 39.9713 130.269 40.27 129.859 40.494C129.457 40.7087 128.963 40.816 128.375 40.816ZM128.375 39.85C128.869 39.85 129.261 39.724 129.551 39.472C129.849 39.2107 129.999 38.8373 129.999 38.352C129.999 37.876 129.849 37.512 129.551 37.26C129.261 36.9987 128.869 36.868 128.375 36.868C127.871 36.868 127.469 36.9987 127.171 37.26C126.881 37.512 126.737 37.876 126.737 38.352C126.737 38.8373 126.881 39.2107 127.171 39.472C127.469 39.724 127.871 39.85 128.375 39.85ZM126.331 43.896C126.331 44.3627 126.527 44.708 126.919 44.932C127.311 45.1653 127.801 45.282 128.389 45.282C128.967 45.282 129.429 45.156 129.775 44.904C130.129 44.652 130.307 44.316 130.307 43.896C130.307 43.5973 130.185 43.336 129.943 43.112C129.7 42.8973 129.252 42.7713 128.599 42.734C128.085 42.6967 127.642 42.65 127.269 42.594C126.886 42.7993 126.634 43.0187 126.513 43.252C126.391 43.4947 126.331 43.7093 126.331 43.896ZM135.945 43.168C135.367 43.168 134.886 43.07 134.503 42.874C134.121 42.678 133.836 42.4167 133.649 42.09C133.463 41.7633 133.369 41.4087 133.369 41.026C133.369 40.3167 133.64 39.7707 134.181 39.388C134.723 39.0053 135.46 38.814 136.393 38.814H138.269V38.73C138.269 38.1233 138.111 37.666 137.793 37.358C137.476 37.0407 137.051 36.882 136.519 36.882C136.062 36.882 135.665 36.9987 135.329 37.232C135.003 37.456 134.797 37.7873 134.713 38.226H133.509C133.556 37.722 133.724 37.2973 134.013 36.952C134.312 36.6067 134.681 36.3453 135.119 36.168C135.558 35.9813 136.025 35.888 136.519 35.888C137.49 35.888 138.218 36.1493 138.703 36.672C139.198 37.1853 139.445 37.8713 139.445 38.73V43H138.395L138.325 41.754C138.129 42.146 137.84 42.482 137.457 42.762C137.084 43.0327 136.58 43.168 135.945 43.168ZM136.127 42.174C136.575 42.174 136.958 42.0573 137.275 41.824C137.602 41.5907 137.849 41.2873 138.017 40.914C138.185 40.5407 138.269 40.1487 138.269 39.738V39.724H136.491C135.801 39.724 135.311 39.8453 135.021 40.088C134.741 40.3213 134.601 40.6153 134.601 40.97C134.601 41.334 134.732 41.628 134.993 41.852C135.264 42.0667 135.642 42.174 136.127 42.174ZM144.234 40.816C143.842 40.816 143.482 40.7647 143.156 40.662L142.456 41.32C142.558 41.3947 142.684 41.46 142.834 41.516C142.992 41.5627 143.216 41.6093 143.506 41.656C143.795 41.6933 144.201 41.7353 144.724 41.782C145.657 41.8473 146.324 42.062 146.726 42.426C147.127 42.79 147.328 43.266 147.328 43.854C147.328 44.2553 147.216 44.638 146.992 45.002C146.777 45.366 146.441 45.6647 145.984 45.898C145.536 46.1313 144.957 46.248 144.248 46.248C143.622 46.248 143.067 46.164 142.582 45.996C142.096 45.8373 141.718 45.59 141.448 45.254C141.177 44.9273 141.042 44.512 141.042 44.008C141.042 43.7467 141.112 43.462 141.252 43.154C141.392 42.8553 141.653 42.5707 142.036 42.3C141.83 42.216 141.653 42.1273 141.504 42.034C141.364 41.9313 141.233 41.8193 141.112 41.698V41.376L142.302 40.2C141.751 39.7333 141.476 39.1173 141.476 38.352C141.476 37.8947 141.583 37.4793 141.798 37.106C142.012 36.7327 142.325 36.4387 142.736 36.224C143.146 36 143.646 35.888 144.234 35.888C144.635 35.888 144.999 35.944 145.326 36.056H147.888V36.938L146.586 36.994C146.856 37.386 146.992 37.8387 146.992 38.352C146.992 38.8093 146.88 39.2247 146.656 39.598C146.441 39.9713 146.128 40.27 145.718 40.494C145.316 40.7087 144.822 40.816 144.234 40.816ZM144.234 39.85C144.728 39.85 145.12 39.724 145.41 39.472C145.708 39.2107 145.858 38.8373 145.858 38.352C145.858 37.876 145.708 37.512 145.41 37.26C145.12 36.9987 144.728 36.868 144.234 36.868C143.73 36.868 143.328 36.9987 143.03 37.26C142.74 37.512 142.596 37.876 142.596 38.352C142.596 38.8373 142.74 39.2107 143.03 39.472C143.328 39.724 143.73 39.85 144.234 39.85ZM142.19 43.896C142.19 44.3627 142.386 44.708 142.778 44.932C143.17 45.1653 143.66 45.282 144.248 45.282C144.826 45.282 145.288 45.156 145.634 44.904C145.988 44.652 146.166 44.316 146.166 43.896C146.166 43.5973 146.044 43.336 145.802 43.112C145.559 42.8973 145.111 42.7713 144.458 42.734C143.944 42.6967 143.501 42.65 143.128 42.594C142.745 42.7993 142.493 43.0187 142.372 43.252C142.25 43.4947 142.19 43.7093 142.19 43.896ZM149.494 43V36.056H150.558L150.628 37.302C150.852 36.8633 151.174 36.518 151.594 36.266C152.014 36.014 152.49 35.888 153.022 35.888C153.843 35.888 154.497 36.14 154.982 36.644C155.477 37.1387 155.724 37.904 155.724 38.94V43H154.548V39.066C154.548 37.6193 153.951 36.896 152.756 36.896C152.159 36.896 151.659 37.1153 151.258 37.554C150.866 37.9833 150.67 38.5993 150.67 39.402V43H149.494ZM160.096 43.168C159.517 43.168 159.037 43.07 158.654 42.874C158.271 42.678 157.987 42.4167 157.8 42.09C157.613 41.7633 157.52 41.4087 157.52 41.026C157.52 40.3167 157.791 39.7707 158.332 39.388C158.873 39.0053 159.611 38.814 160.544 38.814H162.42V38.73C162.42 38.1233 162.261 37.666 161.944 37.358C161.627 37.0407 161.202 36.882 160.67 36.882C160.213 36.882 159.816 36.9987 159.48 37.232C159.153 37.456 158.948 37.7873 158.864 38.226H157.66C157.707 37.722 157.875 37.2973 158.164 36.952C158.463 36.6067 158.831 36.3453 159.27 36.168C159.709 35.9813 160.175 35.888 160.67 35.888C161.641 35.888 162.369 36.1493 162.854 36.672C163.349 37.1853 163.596 37.8713 163.596 38.73V43H162.546L162.476 41.754C162.28 42.146 161.991 42.482 161.608 42.762C161.235 43.0327 160.731 43.168 160.096 43.168ZM160.278 42.174C160.726 42.174 161.109 42.0573 161.426 41.824C161.753 41.5907 162 41.2873 162.168 40.914C162.336 40.5407 162.42 40.1487 162.42 39.738V39.724H160.642C159.951 39.724 159.461 39.8453 159.172 40.088C158.892 40.3213 158.752 40.6153 158.752 40.97C158.752 41.334 158.883 41.628 159.144 41.852C159.415 42.0667 159.793 42.174 160.278 42.174ZM167.95 43.168C167.371 43.168 166.891 43.07 166.508 42.874C166.125 42.678 165.841 42.4167 165.654 42.09C165.467 41.7633 165.374 41.4087 165.374 41.026C165.374 40.3167 165.645 39.7707 166.186 39.388C166.727 39.0053 167.465 38.814 168.398 38.814H170.274V38.73C170.274 38.1233 170.115 37.666 169.798 37.358C169.481 37.0407 169.056 36.882 168.524 36.882C168.067 36.882 167.67 36.9987 167.334 37.232C167.007 37.456 166.802 37.7873 166.718 38.226H165.514C165.561 37.722 165.729 37.2973 166.018 36.952C166.317 36.6067 166.685 36.3453 167.124 36.168C167.563 35.9813 168.029 35.888 168.524 35.888C169.495 35.888 170.223 36.1493 170.708 36.672C171.203 37.1853 171.45 37.8713 171.45 38.73V43H170.4L170.33 41.754C170.134 42.146 169.845 42.482 169.462 42.762C169.089 43.0327 168.585 43.168 167.95 43.168ZM168.132 42.174C168.58 42.174 168.963 42.0573 169.28 41.824C169.607 41.5907 169.854 41.2873 170.022 40.914C170.19 40.5407 170.274 40.1487 170.274 39.738V39.724H168.496C167.805 39.724 167.315 39.8453 167.026 40.088C166.746 40.3213 166.606 40.6153 166.606 40.97C166.606 41.334 166.737 41.628 166.998 41.852C167.269 42.0667 167.647 42.174 168.132 42.174ZM173.494 46.08V36.056H174.558L174.67 37.204C174.894 36.868 175.212 36.5647 175.622 36.294C176.042 36.0233 176.574 35.888 177.218 35.888C177.909 35.888 178.511 36.0467 179.024 36.364C179.538 36.6813 179.934 37.1153 180.214 37.666C180.504 38.2167 180.648 38.842 180.648 39.542C180.648 40.242 180.504 40.8673 180.214 41.418C179.934 41.9593 179.533 42.3887 179.01 42.706C178.497 43.014 177.895 43.168 177.204 43.168C176.635 43.168 176.126 43.0513 175.678 42.818C175.24 42.5847 174.904 42.258 174.67 41.838V46.08H173.494ZM177.078 42.146C177.545 42.146 177.956 42.0387 178.31 41.824C178.665 41.6 178.945 41.292 179.15 40.9C179.356 40.508 179.458 40.0507 179.458 39.528C179.458 39.0053 179.356 38.548 179.15 38.156C178.945 37.764 178.665 37.4607 178.31 37.246C177.956 37.022 177.545 36.91 177.078 36.91C176.612 36.91 176.201 37.022 175.846 37.246C175.492 37.4607 175.212 37.764 175.006 38.156C174.801 38.548 174.698 39.0053 174.698 39.528C174.698 40.0507 174.801 40.508 175.006 40.9C175.212 41.292 175.492 41.6 175.846 41.824C176.201 42.0387 176.612 42.146 177.078 42.146ZM182.565 46.08V36.056H183.629L183.741 37.204C183.965 36.868 184.283 36.5647 184.693 36.294C185.113 36.0233 185.645 35.888 186.289 35.888C186.98 35.888 187.582 36.0467 188.095 36.364C188.609 36.6813 189.005 37.1153 189.285 37.666C189.575 38.2167 189.719 38.842 189.719 39.542C189.719 40.242 189.575 40.8673 189.285 41.418C189.005 41.9593 188.604 42.3887 188.081 42.706C187.568 43.014 186.966 43.168 186.275 43.168C185.706 43.168 185.197 43.0513 184.749 42.818C184.311 42.5847 183.975 42.258 183.741 41.838V46.08H182.565ZM186.149 42.146C186.616 42.146 187.027 42.0387 187.381 41.824C187.736 41.6 188.016 41.292 188.221 40.9C188.427 40.508 188.529 40.0507 188.529 39.528C188.529 39.0053 188.427 38.548 188.221 38.156C188.016 37.764 187.736 37.4607 187.381 37.246C187.027 37.022 186.616 36.91 186.149 36.91C185.683 36.91 185.272 37.022 184.917 37.246C184.563 37.4607 184.283 37.764 184.077 38.156C183.872 38.548 183.769 39.0053 183.769 39.528C183.769 40.0507 183.872 40.508 184.077 40.9C184.283 41.292 184.563 41.6 184.917 41.824C185.272 42.0387 185.683 42.146 186.149 42.146ZM191.552 37.974V36.966H197.138V37.974H191.552ZM191.552 40.886V39.878H197.138V40.886H191.552ZM202.464 43.168C201.745 43.168 201.12 43.0373 200.588 42.776C200.056 42.5147 199.645 42.1507 199.356 41.684C199.066 41.2173 198.922 40.676 198.922 40.06H200.154C200.154 40.4427 200.242 40.7973 200.42 41.124C200.597 41.4413 200.854 41.698 201.19 41.894C201.535 42.0807 201.96 42.174 202.464 42.174C203.126 42.174 203.64 42.0153 204.004 41.698C204.368 41.3807 204.55 40.984 204.55 40.508C204.55 40.116 204.466 39.8033 204.298 39.57C204.13 39.3273 203.901 39.1313 203.612 38.982C203.332 38.8327 203.005 38.702 202.632 38.59C202.268 38.478 201.885 38.352 201.484 38.212C200.728 37.9507 200.168 37.6287 199.804 37.246C199.44 36.854 199.258 36.3453 199.258 35.72C199.248 35.1973 199.37 34.7353 199.622 34.334C199.874 33.9233 200.228 33.606 200.686 33.382C201.152 33.1487 201.703 33.032 202.338 33.032C202.963 33.032 203.504 33.1487 203.962 33.382C204.428 33.6153 204.788 33.9373 205.04 34.348C205.301 34.7587 205.436 35.2253 205.446 35.748H204.214C204.214 35.4773 204.144 35.2113 204.004 34.95C203.864 34.6793 203.649 34.46 203.36 34.292C203.08 34.124 202.725 34.04 202.296 34.04C201.764 34.0307 201.325 34.166 200.98 34.446C200.644 34.726 200.476 35.1133 200.476 35.608C200.476 36.028 200.592 36.35 200.826 36.574C201.068 36.798 201.404 36.9847 201.834 37.134C202.263 37.274 202.758 37.4373 203.318 37.624C203.784 37.792 204.204 37.988 204.578 38.212C204.951 38.436 205.24 38.7253 205.446 39.08C205.66 39.4347 205.768 39.8873 205.768 40.438C205.768 40.9047 205.646 41.348 205.404 41.768C205.161 42.1787 204.792 42.5147 204.298 42.776C203.812 43.0373 203.201 43.168 202.464 43.168ZM207.646 43V36.056H208.71L208.78 37.302C209.004 36.8633 209.326 36.518 209.746 36.266C210.166 36.014 210.642 35.888 211.174 35.888C211.995 35.888 212.648 36.14 213.134 36.644C213.628 37.1387 213.876 37.904 213.876 38.94V43H212.7V39.066C212.7 37.6193 212.102 36.896 210.908 36.896C210.31 36.896 209.811 37.1153 209.41 37.554C209.018 37.9833 208.822 38.5993 208.822 39.402V43H207.646ZM216.707 34.516C216.483 34.516 216.292 34.4413 216.133 34.292C215.975 34.1333 215.895 33.9373 215.895 33.704C215.895 33.48 215.975 33.2933 216.133 33.144C216.292 32.9947 216.483 32.92 216.707 32.92C216.931 32.92 217.118 32.9947 217.267 33.144C217.426 33.2933 217.505 33.48 217.505 33.704C217.505 33.9373 217.426 34.1333 217.267 34.292C217.118 34.4413 216.931 34.516 216.707 34.516ZM214.579 46.08V45.072H215.125C215.471 45.072 215.718 44.9973 215.867 44.848C216.026 44.708 216.105 44.4653 216.105 44.12V36.056H217.281V44.148C217.281 44.82 217.113 45.31 216.777 45.618C216.441 45.926 215.951 46.08 215.307 46.08H214.579ZM219.608 43V36.056H220.672L220.756 37.064C220.98 36.6907 221.279 36.4013 221.652 36.196C222.025 35.9907 222.445 35.888 222.912 35.888C223.463 35.888 223.934 36 224.326 36.224C224.727 36.448 225.035 36.7887 225.25 37.246C225.493 36.826 225.824 36.4947 226.244 36.252C226.673 36.0093 227.135 35.888 227.63 35.888C228.461 35.888 229.123 36.14 229.618 36.644C230.113 37.1387 230.36 37.904 230.36 38.94V43H229.198V39.066C229.198 38.3473 229.053 37.806 228.764 37.442C228.475 37.078 228.059 36.896 227.518 36.896C226.958 36.896 226.491 37.1153 226.118 37.554C225.754 37.9833 225.572 38.5993 225.572 39.402V43H224.396V39.066C224.396 38.3473 224.251 37.806 223.962 37.442C223.673 37.078 223.257 36.896 222.716 36.896C222.165 36.896 221.703 37.1153 221.33 37.554C220.966 37.9833 220.784 38.5993 220.784 39.402V43H219.608ZM235.561 43.168C234.871 43.168 234.264 43.0093 233.741 42.692C233.228 42.3747 232.827 41.9407 232.537 41.39C232.257 40.8393 232.117 40.214 232.117 39.514C232.117 38.814 232.262 38.1933 232.551 37.652C232.841 37.1013 233.242 36.672 233.755 36.364C234.269 36.0467 234.875 35.888 235.575 35.888C236.145 35.888 236.649 36.0047 237.087 36.238C237.526 36.4713 237.867 36.798 238.109 37.218V32.92H239.285V43H238.221L238.109 41.852C237.885 42.188 237.563 42.4913 237.143 42.762C236.723 43.0327 236.196 43.168 235.561 43.168ZM235.687 42.146C236.154 42.146 236.565 42.0387 236.919 41.824C237.283 41.6 237.563 41.292 237.759 40.9C237.965 40.508 238.067 40.0507 238.067 39.528C238.067 39.0053 237.965 38.548 237.759 38.156C237.563 37.764 237.283 37.4607 236.919 37.246C236.565 37.022 236.154 36.91 235.687 36.91C235.23 36.91 234.819 37.022 234.455 37.246C234.101 37.4607 233.821 37.764 233.615 38.156C233.419 38.548 233.321 39.0053 233.321 39.528C233.321 40.0507 233.419 40.508 233.615 40.9C233.821 41.292 234.101 41.6 234.455 41.824C234.819 42.0387 235.23 42.146 235.687 42.146Z" fill="#005E5E"/>
</svg>
