<svg width="30" height="30" viewBox="0 0 30 30" fill="none" xmlns="http://www.w3.org/2000/svg">
<rect width="30" height="30" rx="15" fill="#FFFDF5"/>
<path d="M19 8.74967H11C10.1199 8.74967 9.41671 9.45342 9.41671 10.313V17.5863C9.41671 18.4459 10.1199 19.1497 11 19.1497H11.5067C12.1478 19.1497 12.7607 19.3983 13.2137 19.8507C13.214 19.8511 13.2144 19.8514 13.2147 19.8517L14.3528 20.9765L19 8.74967ZM19 8.74967C19.8802 8.74967 20.5834 9.45342 20.5834 10.313V17.5863C20.5834 18.4459 19.8802 19.1497 19 19.1497H18.5C17.8664 19.1497 17.2466 19.3977 16.7931 19.8507C16.7927 19.8511 16.7924 19.8514 16.7921 19.8517L15.654 20.9765M19 8.74967L15.654 20.9765M15.654 20.9765L15.6538 20.9767C15.2961 21.3296 14.7106 21.3296 14.3529 20.9767L15.654 20.9765ZM13.92 15.2563H13.5034V15.263H13.373C13.3756 15.2612 13.3782 15.2595 13.3808 15.2577L13.3816 15.2572C13.3947 15.2482 13.408 15.2392 13.4215 15.23C13.9636 14.8608 14.8367 14.2662 14.8367 13.1063C14.8367 11.9762 13.9235 11.063 12.7934 11.063C11.6621 11.063 10.75 11.984 10.75 13.1063C10.75 13.6098 11.1633 14.023 11.6667 14.023C11.7962 14.023 11.9196 13.9957 12.0317 13.9465C11.5923 14.2633 11.0978 14.6958 10.8707 15.3901L10.8706 15.3901L10.8676 15.3999C10.7528 15.7828 10.8081 16.1994 11.0566 16.5384C11.3078 16.8852 11.7059 17.0897 12.1334 17.0897H13.92C14.4235 17.0897 14.8367 16.6765 14.8367 16.173C14.8367 15.6696 14.4235 15.2563 13.92 15.2563ZM12.3235 13.7437C12.4841 13.5783 12.5834 13.3532 12.5834 13.1063C12.5834 12.9782 12.6816 12.8897 12.7867 12.8897C12.9033 12.8897 12.9967 12.9831 12.9967 13.0997C12.9967 13.1621 12.9812 13.2177 12.8938 13.3102C12.7893 13.4208 12.6213 13.5425 12.3469 13.7277L12.3469 13.7276L12.3448 13.7291C12.3377 13.7339 12.3306 13.7388 12.3235 13.7437ZM14.7265 15.4758L14.7265 15.4758L14.7287 15.4795C14.9693 15.8837 15.4043 16.1363 15.88 16.1363H15.8801H15.8801H15.8802H15.8802H15.8802H15.8803H15.8803H15.8804H15.8804H15.8804H15.8805H15.8805H15.8805H15.8806H15.8806H15.8807H15.8807H15.8807H15.8808H15.8808H15.8808H15.8809H15.8809H15.8809H15.881H15.881H15.881H15.8811H15.8811H15.8812H15.8812H15.8812H15.8813H15.8813H15.8813H15.8814H15.8814H15.8814H15.8815H15.8815H15.8815H15.8816H15.8816H15.8816H15.8817H15.8817H15.8817H15.8818H15.8818H15.8818H15.8818H15.8819H15.8819H15.8819H15.882H15.882H15.882H15.8821H15.8821H15.8821H15.8822H15.8822H15.8822H15.8822H15.8823H15.8823H15.8823H15.8824H15.8824H15.8824H15.8825H15.8825H15.8825H15.8825H15.8826H15.8826H15.8826H15.8827H15.8827H15.8827H15.8827H15.8828H15.8828H15.8828H15.8828H15.8829H15.8829H15.8829H15.883H15.883H15.883H15.883H15.8831H15.8831H15.8831H15.8831H15.8832H15.8832H15.8832H15.8832H15.8833H15.8833H15.8833H15.8833H15.8834H15.8834H15.8834H15.8834H15.8835H15.8835H15.8835H15.8835H15.8836H15.8836H15.8836H15.8836H15.8837H15.8837H15.8837H15.8837H15.8837H15.8838H15.8838H15.8838H15.8838H15.8839H15.8839H15.8839H15.8839H15.8839H15.884H15.884H15.884H15.884H15.8841H15.8841H15.8841H15.8841H15.8841H15.8842H15.8842H15.8842H15.8842H15.8842H15.8843H15.8843H15.8843H15.8843H15.8843H15.8844H15.8844H15.8844H15.8844H15.8844H15.8845H15.8845H15.8845H15.8845H15.8845H15.8845H15.8846H15.8846H15.8846H15.8846H15.8846H15.8847H15.8847H15.8847H15.8847H15.8847H15.8847H15.8848H15.8848H15.8848H15.8848H15.8848H15.8848H15.8849H15.8849H15.8849H15.8849H15.8849H15.8849H15.885H15.885H15.885H15.885H15.885H15.885H15.8851H15.8851H15.8851H15.8851H15.8851H15.8851H15.8851H15.8852H15.8852H15.8852H15.8852H15.8852H15.8852H15.8852H15.8853H15.8853H15.8853H15.8853H15.8853H15.8853H15.8853H15.8854H15.8854H15.8854H15.8854H15.8854H15.8854H15.8854H15.8855H15.8855H15.8855H15.8855H15.8855H15.8855H15.8855H15.8855H15.8856H15.8856H15.8856H15.8856H15.8856H15.8856H15.8856H15.8856H15.8856H15.8857H15.8857H15.8857H15.8857H15.8857H15.8857H15.8857H15.8857H15.8857H15.8858H15.8858H15.8858H15.8858H15.8858H15.8858H15.8858H15.8858H15.8858H15.8858H15.8859H15.8859H15.8859H15.8859H15.8859H15.8859H15.8859H15.8859H15.8859H15.8859H15.886H15.886H15.886H15.886H15.886H15.886H15.886H15.886H15.886H15.886H15.886H15.8861H15.8861H15.8861H15.8861H15.8861H15.8861H15.8861H15.8861H15.8861H15.8861H15.8861H15.8861H15.8861H15.8862H15.8862H15.8862H15.8862H15.8862H15.8862H15.8862H15.8862H15.8862H15.8862H15.8862H15.8862H15.8862H15.8862H15.8863H15.8863H15.8863H15.8863H15.8863H15.8863H15.8863H15.8863H15.8863H15.8863H15.8863H15.8863H15.8863H15.8863H15.8863H15.8863H15.8864H15.8864H15.8864H15.8864H15.8864H15.8864H15.8864H15.8864H15.8864H15.8864H15.8864H15.8864H15.8864H15.8864H15.8864H15.8864H15.8864H15.8864H15.8864H15.8864H15.8865H15.8865H15.8865H15.8865H15.8865H15.8865H15.8865H15.8865H15.8865H15.8865H15.8865H15.8865H15.8865H15.8865H15.8865H15.8865H15.8865H15.8865H15.8865H15.8865H15.8865H15.8865H15.8866H15.8866H15.8866H15.8866H15.8866H15.8866H15.8866H15.8866H15.8866H15.8866H15.8866H15.8866H15.8866H15.8866H15.8866H15.8866H15.8866H15.8866H15.8866H15.8866H15.8867H15.8867H15.8867H15.8867H15.8867H15.8867H15.8867H15.8867H15.8867H15.8867H15.8867H15.8867H15.8867H15.8867H15.8867H16.7767V16.1797C16.7767 16.6831 17.1899 17.0963 17.6934 17.0963C18.1968 17.0963 18.61 16.6831 18.61 16.1797V16.0937C18.9763 15.9779 19.25 15.6383 19.25 15.2263C19.25 14.8167 18.9765 14.4668 18.6034 14.3506V12.3828C18.6115 11.7892 18.2154 11.2843 17.6658 11.1204L17.6658 11.1203L17.6593 11.1185C17.1027 10.9623 16.506 11.1873 16.1938 11.6849L16.1927 11.6866C15.7102 12.4639 15.1818 13.3536 14.7275 14.1353C14.4829 14.5478 14.4859 15.0619 14.7265 15.4758Z" fill="#E8D28B" stroke="#E8D28B" stroke-width="0.833333"/>
<path d="M16.7767 14.2964H16.7551C16.7623 14.2843 16.7695 14.2721 16.7767 14.26V14.2964Z" fill="#E8D28B" stroke="#E8D28B" stroke-width="0.833333"/>
</svg>
