<svg width="30" height="30" viewBox="0 0 30 30" fill="none" xmlns="http://www.w3.org/2000/svg">
<rect width="30" height="30" rx="15" fill="#E6EFEF"/>
<path d="M15.67 17.4797C15.67 17.8498 15.3701 18.1497 15 18.1497C14.63 18.1497 14.33 17.8498 14.33 17.4797C14.33 17.1097 14.63 16.8097 15 16.8097C15.3701 16.8097 15.67 17.1097 15.67 17.4797Z" fill="#005E5E" stroke="#005E5E" stroke-width="0.833333"/>
<path d="M18.77 13.353V13.7208L19.135 13.7665C20.0075 13.8755 20.4921 14.1382 20.7845 14.559C21.0948 15.0059 21.25 15.714 21.25 16.8597V18.0997C21.25 19.4517 21.0371 20.19 20.6137 20.6134C20.1903 21.0367 19.452 21.2497 18.1 21.2497H11.9C10.548 21.2497 9.80967 21.0367 9.3863 20.6134C8.96294 20.19 8.75001 19.4517 8.75001 18.0997V16.8597C8.75001 15.714 8.90519 15.0059 9.21555 14.559C9.5079 14.1382 9.99253 13.8755 10.865 13.7665L11.23 13.7208V13.353V12.5197C11.23 11.6372 11.3403 10.702 11.8401 9.99093C12.3186 9.31011 13.2179 8.74967 15 8.74967C16.7821 8.74967 17.6814 9.31011 18.16 9.99093C18.6597 10.702 18.77 11.6372 18.77 12.5197V13.353ZM11.33 13.293V13.7097H11.4833V13.7163H11.9H18.1H18.1003H18.1006H18.1009H18.1013H18.1016H18.1019H18.1022H18.1025H18.1028H18.1031H18.1034H18.1037H18.1041H18.1044H18.1047H18.105H18.1053H18.1056H18.1059H18.1062H18.1065H18.1068H18.1072H18.1075H18.1078H18.1081H18.1084H18.1087H18.109H18.1093H18.1096H18.1099H18.1102H18.1105H18.1109H18.1112H18.1115H18.1118H18.1121H18.1124H18.1127H18.113H18.1133H18.1136H18.1139H18.1142H18.1145H18.1148H18.1151H18.1155H18.1158H18.1161H18.1164H18.1167H18.117H18.1173H18.1176H18.1179H18.1182H18.1185H18.1188H18.1191H18.1194H18.1197H18.12H18.1203H18.1206H18.1209H18.1212H18.1215H18.1218H18.1222H18.1225H18.1228H18.1231H18.1234H18.1237H18.124H18.1243H18.1246H18.1249H18.1252H18.1255H18.1258H18.1261H18.1264H18.1267H18.127H18.1273H18.1276H18.1279H18.1282H18.1285H18.1288H18.1291H18.1294H18.1297H18.13H18.1303H18.1306H18.1309H18.1312H18.1315H18.1318H18.1321H18.1324H18.1327H18.133H18.1333H18.1336H18.1339H18.1342H18.1345H18.1348H18.1351H18.1354H18.1357H18.136H18.1363H18.1366H18.1369H18.1372H18.1375H18.1378H18.1381H18.1384H18.1387H18.139H18.1393H18.1396H18.1399H18.1402H18.1405H18.1408H18.1411H18.1413H18.1416H18.1419H18.1422H18.1425H18.1428H18.1431H18.1434H18.1437H18.144H18.1443H18.1446H18.1449H18.1452H18.1455H18.1458H18.1461H18.1464H18.1467H18.147H18.1473H18.1476H18.1479H18.1482H18.1485H18.1488H18.1491H18.1494H18.1496H18.1499H18.1502H18.1505H18.1508H18.1511H18.1514H18.1517H18.152H18.1523H18.1526H18.1529H18.1532H18.1535H18.1538H18.1541H18.1544H18.1547H18.155H18.1553H18.1555H18.1558H18.1561H18.1564H18.1567H18.157H18.1573H18.1576H18.1579H18.1582H18.1585H18.1588H18.1591H18.1594H18.1597H18.16H18.1603H18.1605H18.1608H18.1611H18.1614H18.1617H18.162H18.1623H18.1626H18.1629H18.1632H18.1635H18.1638H18.1641H18.1644H18.1647H18.165H18.1652H18.1655H18.1658H18.1661H18.1664H18.1667H18.167H18.1673H18.1676H18.1679H18.1682H18.1685H18.1688H18.1691H18.1693H18.1696H18.1699H18.1702H18.1705H18.1708H18.1711H18.1714H18.1717H18.172H18.1723H18.1726H18.1729H18.1732H18.1735H18.1737H18.174H18.1743H18.1746H18.1749H18.1752H18.1755H18.1758H18.1761H18.1764H18.1767H18.177H18.1773H18.1776H18.1778H18.1781H18.1784H18.1787H18.179H18.1793H18.1796H18.1799H18.1802H18.1805H18.1808H18.1811H18.1814H18.1817H18.1819H18.1822H18.1825H18.1828H18.1831H18.1834H18.1837H18.184H18.1843H18.1846H18.1849H18.1852H18.1855H18.1858H18.1861H18.1863H18.1866H18.1869H18.1872H18.1875H18.1878H18.1881H18.1884H18.1887H18.189H18.1893H18.1896H18.1899H18.1902H18.1905H18.1907H18.191H18.1913H18.1916H18.1919H18.1922H18.1925H18.1928H18.1931H18.1934H18.1937H18.194H18.1943H18.1946H18.1949H18.1952H18.1955H18.1957H18.196H18.1963H18.1966H18.1969H18.1972H18.1975H18.1978H18.1981H18.1984H18.1987H18.199H18.1993H18.1996H18.1999H18.2002H18.2005H18.2008H18.201H18.2013H18.2016H18.2019H18.2022H18.2025H18.2028H18.2031H18.2034H18.2037H18.204H18.2043H18.2046H18.2049H18.2052H18.2055H18.2058H18.2061H18.2064H18.2067H18.207H18.2073H18.2076H18.2078H18.2081H18.2084H18.2087H18.209H18.2093H18.2096H18.2099H18.2102H18.2105H18.2108H18.2111H18.2114H18.2117H18.212H18.2123H18.2126H18.2129H18.2132H18.2135H18.2138H18.2141H18.2144H18.2147H18.215H18.2153H18.2156H18.2159H18.2162H18.2165H18.2168H18.2171H18.2174H18.2177H18.218H18.2183H18.2186H18.2189H18.2192H18.2195H18.2198H18.2201H18.2204H18.2207H18.221H18.2213H18.2216H18.2219H18.2222H18.2225H18.2228H18.2231H18.2234H18.2237H18.224H18.2243H18.2246H18.2249H18.2252H18.2255H18.2258H18.2261H18.2264H18.2267H18.227H18.2273H18.2276H18.2279H18.2282H18.2285H18.2288H18.2291H18.2294H18.2297H18.23H18.2303H18.2306H18.2309H18.2312H18.2315H18.2318H18.2321H18.2324H18.2327H18.233H18.2333H18.2336H18.2339H18.2342H18.2345H18.2348H18.2352H18.2355H18.2358H18.2361H18.2364H18.2367H18.237H18.2373H18.2376H18.2379H18.2382H18.2385H18.2388H18.2391H18.2394H18.2397H18.24H18.2403H18.2407H18.241H18.2413H18.2416H18.2419H18.2422H18.2425H18.2428H18.2431H18.2434H18.2437H18.244H18.2443H18.2446H18.245H18.2453H18.2456H18.2459H18.2462H18.2465H18.2468H18.2471H18.2474H18.2477H18.2481H18.2484H18.2487H18.249H18.2493H18.2496H18.2499H18.2502H18.2505H18.2508H18.2512H18.2515H18.2518H18.2521H18.2524H18.2527H18.253H18.2533H18.67V13.2997V12.5197C18.67 11.5241 18.534 10.5812 17.9588 9.89326C17.3695 9.18827 16.4073 8.84967 15 8.84967C13.5927 8.84967 12.6306 9.18827 12.0412 9.89326C11.466 10.5812 11.33 11.5241 11.33 12.5197V13.293ZM12.57 17.4797C12.57 18.8156 13.6557 19.9097 15 19.9097C16.3435 19.9097 17.43 18.8231 17.43 17.4797C17.43 16.1429 16.3368 15.0497 15 15.0497C13.6641 15.0497 12.57 16.1353 12.57 17.4797Z" fill="#005E5E" stroke="#005E5E" stroke-width="0.833333"/>
</svg>
