<svg width="30" height="30" viewBox="0 0 30 30" fill="none" xmlns="http://www.w3.org/2000/svg">
<rect width="30" height="30" rx="15" fill="#FAEAEA"/>
<path d="M13.4167 15.9163H13V18.1997C13 20.333 14.3333 21.6663 16.4667 21.6663H18.1933C20.3267 21.6663 21.66 20.333 21.66 18.1997V11.7997C21.6666 9.66634 20.3333 8.33301 18.2 8.33301H16.4667C14.3333 8.33301 13 9.66634 13 11.7997V14.083H13.4167M13.4167 15.9163V18.1997C13.4167 19.1785 13.7208 19.9312 14.2279 20.4384C14.7351 20.9456 15.4879 21.2497 16.4667 21.2497H18.1933C19.1721 21.2497 19.9248 20.9456 20.432 20.4384C20.9392 19.9312 21.2433 19.1785 21.2433 18.1997V11.7997V11.7984C21.2464 10.8199 20.9438 10.0676 20.4377 9.56076C19.9314 9.05382 19.1789 8.74967 18.2 8.74967H16.4667C15.4879 8.74967 14.7351 9.05378 14.2279 9.56097C13.7208 10.0682 13.4167 10.8209 13.4167 11.7997V14.083M13.4167 15.9163V15.4997H17.1667C17.44 15.4997 17.6667 15.273 17.6667 14.9997C17.6667 14.7263 17.44 14.4997 17.1667 14.4997H13.4167V14.083M13.4167 15.9163H17.1667C17.6701 15.9163 18.0833 15.5031 18.0833 14.9997C18.0833 14.4962 17.6701 14.083 17.1667 14.083H13.4167" fill="#D1292D" stroke="#D1292D" stroke-width="0.833333"/>
<path d="M9.74544 14.2051L9.03415 14.9164H10.0401H12.5834V15.0831H10.0401H9.03415L9.74544 15.7944L11.1254 17.1744C11.1394 17.1883 11.1484 17.2085 11.1484 17.2331C11.1484 17.2576 11.1394 17.2779 11.1254 17.2918C11.1115 17.3057 11.0913 17.3147 11.0667 17.3147C11.0422 17.3147 11.0219 17.3057 11.008 17.2918L8.7747 15.0584C8.76078 15.0445 8.75173 15.0243 8.75173 14.9997C8.75173 14.9752 8.76078 14.9549 8.7747 14.941L11.008 12.7077C11.0219 12.6938 11.0422 12.6847 11.0667 12.6847C11.0913 12.6847 11.1115 12.6938 11.1254 12.7077L11.1305 12.7128L11.1358 12.7177C11.1366 12.7185 11.1401 12.722 11.1437 12.7311C11.1475 12.7407 11.1501 12.7533 11.1501 12.7664C11.1501 12.7785 11.1479 12.7888 11.1444 12.7974C11.1411 12.8056 11.1356 12.815 11.1254 12.8251L9.74544 14.2051Z" fill="#D1292D" stroke="#D1292D" stroke-width="0.833333"/>
</svg>
