<svg width="30" height="30" viewBox="0 0 30 30" fill="none" xmlns="http://www.w3.org/2000/svg">
<rect width="30" height="30" rx="15" fill="#E6EFEF"/>
<path d="M21.25 21.1665C21.25 21.1859 21.2421 21.2068 21.2245 21.2244C21.207 21.242 21.1861 21.2498 21.1667 21.2498H8.83334C8.81391 21.2498 8.79306 21.242 8.77547 21.2244C8.75789 21.2068 8.75001 21.1859 8.75001 21.1665C8.75001 21.1471 8.75789 21.1262 8.77547 21.1086C8.79306 21.091 8.81391 21.0832 8.83334 21.0832H21.1667C21.1861 21.0832 21.207 21.091 21.2245 21.1086C21.2421 21.1262 21.25 21.1471 21.25 21.1665Z" fill="#005E5E" stroke="#005E5E" stroke-width="0.833333"/>
<path d="M9.41829 16.8822L9.3026 16.7636C8.64508 15.9881 8.68182 14.8273 9.40801 14.1011L14.1747 9.33447C14.9453 8.56386 16.1881 8.56386 16.9588 9.33447L16.9587 9.33456L16.9662 9.34174C17.0654 9.43607 17.0709 9.61308 16.9654 9.71855L9.80542 16.8785C9.69277 16.9912 9.51946 16.9859 9.41829 16.8822Z" fill="#005E5E" stroke="#005E5E" stroke-width="0.833333"/>
<path d="M14.9959 19.7865L14.9947 19.7877C14.6622 20.1202 14.1293 20.112 13.7979 19.7934L13.792 19.7877L13.7921 19.7877C13.4596 19.4552 13.4677 18.9223 13.7864 18.5909L13.792 18.585L13.7921 18.5851L14.6054 17.7718C14.8169 17.5602 15.1183 17.4895 15.3925 17.5511C15.3308 17.277 15.407 16.9785 15.613 16.7643L15.6187 16.7584L15.6188 16.7584L17.2521 15.1251C17.5781 14.7991 18.1174 14.8076 18.4419 15.1191L18.448 15.1249L18.4537 15.1309C18.7722 15.4622 18.7805 15.9947 18.4485 16.3272L18.4486 16.3271L18.1534 16.0331L18.448 16.3277L14.9959 19.7865ZM14.9959 19.7865L15.7996 18.9761C16.0173 18.764 16.0899 18.4581 16.0261 18.1806L14.9959 19.7865ZM20.5854 12.9543L20.5865 12.9554C21.3622 13.7256 21.3622 14.9727 20.5809 15.743L20.5786 15.7453L15.8198 20.5107C15.8196 20.5109 15.8194 20.5111 15.8193 20.5113C15.0486 21.2758 13.8051 21.2759 13.0344 20.5115C13.0342 20.5112 13.0339 20.511 13.0336 20.5107L11.0018 18.4722L11.0014 18.4718C10.8887 18.3591 10.894 18.1858 10.9977 18.0846L10.9977 18.0847L11.0014 18.081L18.1614 10.921L18.1614 10.921L18.165 10.9174C18.2661 10.8137 18.4394 10.8084 18.5521 10.921L20.5854 12.9543Z" fill="#005E5E" stroke="#005E5E" stroke-width="0.833333"/>
</svg>
