<svg width="269" height="269" viewBox="0 0 269 269" fill="none" xmlns="http://www.w3.org/2000/svg">
<path d="M90.8697 148.349C89.2557 145.026 87.0713 142.109 84.593 139.404C79.9204 134.293 74.5578 130.022 68.5801 126.522C65.8502 124.923 63.0332 123.503 60.0891 122.343C58.1189 121.566 56.1363 120.816 54.1562 120.061C53.9918 119.999 53.81 119.991 53.6406 119.957C53.6431 120.146 53.6107 120.35 53.6655 120.525C54.0416 121.723 54.4376 122.908 54.8212 124.101C55.8872 127.431 56.9358 130.771 58.0143 134.099C58.6495 136.059 59.2846 138.022 59.9247 139.98L66.3832 142.378C66.1416 141.634 65.895 140.886 65.6534 140.139C64.7717 137.432 63.8875 134.727 62.9983 132.024C62.6944 131.09 62.3706 130.166 62.0568 129.237C62.0892 129.2 62.1266 129.162 62.1614 129.13C62.8788 129.506 63.6334 129.837 64.3109 130.276C66.976 131.994 69.676 133.671 72.2514 135.514C74.9887 137.469 77.4869 139.723 79.7909 142.179C81.6938 144.201 83.4722 146.324 84.9218 148.7C85.7761 150.105 86.5134 151.567 86.8222 153.211C86.9742 154.025 86.7301 154.62 86.085 155.113C85.0264 155.928 83.8035 156.269 82.5083 156.406C80.284 156.648 78.1146 156.302 75.995 155.684C74.2589 155.176 72.5677 154.523 70.8541 153.948C70.7321 153.908 70.6225 153.858 70.5228 153.798H70.5203L70.4431 153.753L63.078 149.786C62.8439 149.664 62.7368 149.614 62.6396 149.552C56.4651 145.537 51.0178 140.697 46.3253 135.023C43.6253 131.765 41.289 128.276 39.6775 124.335C38.8257 122.261 38.2005 120.133 38.208 117.862C38.2154 114.89 39.5829 113.169 42.4024 112.494C44.4946 111.991 46.6043 112.27 48.6741 112.651C51.0527 113.087 53.3367 113.897 55.556 114.868C60.931 117.224 65.7456 120.47 70.2588 124.183C71.1281 124.901 71.1107 124.916 71.838 124.069C72.6474 123.132 73.4594 122.196 74.2764 121.262C74.5479 120.953 74.5578 120.711 74.1917 120.467C73.8953 120.27 73.6313 120.029 73.3523 119.805C70.2414 117.292 67.0134 114.935 63.5263 112.965C60.0318 110.99 56.4103 109.296 52.5397 108.143C49.4512 107.224 46.3303 106.718 43.1073 106.965C41.4335 107.092 39.8095 107.471 38.3126 108.258C37.8966 108.477 37.4832 108.733 37.1295 109.042C36.3673 109.707 35.5304 110.332 34.9351 111.132C33.7645 112.709 33.1393 114.527 32.9052 116.492C32.7184 118.049 32.828 119.593 33.1069 121.112C33.3112 122.251 33.6898 123.356 34.041 124.462C34.6213 126.296 35.3536 128.071 36.3225 129.735C37.3038 131.419 38.2976 133.103 39.3961 134.707C40.4745 136.271 41.6826 137.75 42.8657 139.242C43.0151 139.429 43.1048 139.596 43.1172 139.77L47.3291 144.134L47.3365 144.142C47.3888 144.182 47.4511 144.239 47.5308 144.316C48.4972 145.273 49.491 146.202 50.5097 147.093C51.8597 148.291 53.2545 149.432 54.6817 150.533C57.9272 153.031 61.3445 155.27 64.9984 157.128C65.2001 157.233 65.362 157.353 65.489 157.505H65.4915L68.0446 158.548L72.2713 160.269C73.1182 160.503 73.8878 160.728 74.6624 160.927C77.7435 161.721 80.8594 162.157 84.0376 161.622C86.3938 161.223 88.5433 160.361 90.2545 158.625C91.191 157.669 91.9382 156.578 92.0802 155.206C92.3293 152.812 91.9233 150.533 90.8647 148.351L90.8697 148.349Z" fill="#E8D28B"/>
<path d="M142.769 139.551C142.769 140.124 142.934 140.533 142.934 140.859C142.934 141.185 142.687 141.35 142.279 141.514C138.926 143.233 135.571 144.214 130.664 144.214C126.657 144.214 121.668 142.824 118.885 139.469C116.35 136.687 115.124 133.17 115.124 128.345C115.124 124.582 116.761 120.656 119.787 118.039C122.731 115.421 126.495 114.031 131.401 114.031C135.327 114.031 138.435 115.259 139.743 116.24C140.234 116.609 140.48 116.487 140.724 116.158L141.215 115.503C141.419 115.217 141.541 115.095 141.788 115.095C142.196 115.095 142.279 115.341 142.279 115.668L142.687 123.847C142.687 124.173 142.687 124.378 142.523 124.42L141.541 124.584C141.297 124.624 141.215 124.502 141.133 124.258C140.56 122.622 139.496 120.333 137.862 118.614C136.473 117.142 134.181 115.752 131.073 115.752C128.537 115.752 126.328 116.407 124.121 118.943C122.158 121.152 120.768 124.587 120.768 128.186C120.768 133.011 122.076 137.183 124.45 139.554C126.412 141.434 128.375 142.336 130.993 142.336C133.611 142.336 135.165 142.01 136.555 141.272C137.454 140.782 137.536 139.636 137.536 137.509V134.525C137.536 133.053 137.128 132.644 136.064 132.644H134.345C134.099 132.644 134.019 132.48 134.019 132.276V131.334C134.019 131.088 134.101 131.008 134.263 131.008C134.754 131.008 136.717 131.13 140.069 131.13C143.422 131.13 144.894 131.008 145.305 131.008C145.631 131.008 145.713 131.09 145.713 131.294V132.316C145.713 132.562 145.631 132.642 145.387 132.642H143.997C143.26 132.642 142.769 132.968 142.769 134.156V139.554V139.551Z" fill="#E8D28B"/>
<path d="M157.94 141.596C157.041 142.578 155.978 143.272 154.384 143.805C153.442 144.092 152.585 144.092 151.766 144.092C150.251 144.092 148.944 142.864 148.944 140.575C148.944 138.694 149.761 136.854 152.707 135.546C155.243 134.318 156.797 133.666 157.696 133.011V130.883C157.614 130.067 157.532 129.085 157.041 128.594C156.633 128.144 155.895 127.982 154.996 127.982C154.259 127.982 153.278 128.226 152.625 128.719C152.052 129.127 152.461 129.74 152.461 130.722C152.461 132.194 151.723 133.093 150.007 133.093C149.27 133.093 148.617 132.602 148.617 131.703C148.617 130.557 149.273 129.25 150.498 128.35C152.217 127.043 154.423 126.061 157.123 126.061C159.412 126.061 160.15 126.552 160.887 127.207C161.786 128.024 161.868 129.17 161.868 130.273L161.95 136.734V138.697C161.95 140.906 162.277 141.559 163.014 141.559C163.587 141.559 164.16 141.233 164.322 140.904C164.486 140.66 164.568 140.66 164.73 140.739L165.221 141.066C165.385 141.148 165.467 141.312 165.303 141.721C164.894 142.458 163.913 144.092 161.539 144.092C159.985 144.092 158.678 143.357 158.105 141.596H157.94ZM157.694 134.522C155.895 135.668 153.195 136.363 153.195 139.347C153.195 141.023 154.095 141.843 155.076 141.843C156.222 141.761 157.694 140.615 157.694 139.88V134.522Z" fill="#E8D28B"/>
<path d="M167.714 153.454C166.242 152.595 165.669 151.532 165.669 150.224C165.669 148.015 167.958 146.46 169.921 145.644V145.397C168.122 144.988 167.141 143.678 167.141 142.371C167.141 140.161 169.43 138.772 170.658 138.199V138.116C169.104 137.217 167.141 135.499 167.141 132.024C167.141 129.324 169.43 126.054 174.705 126.054C178.222 126.054 179.859 127.934 180.267 128.385C181.249 127.608 182.681 126.873 183.744 126.873C185.256 126.873 185.954 127.772 185.871 128.836C185.871 129.653 185.134 130.472 184.235 130.472C183.622 130.472 183.214 130.146 182.967 129.9C182.641 129.653 182.312 129.409 181.986 129.409C181.739 129.409 181.331 129.409 181.005 129.655C181.249 130.146 181.495 131.045 181.495 132.355C181.495 133.949 181.005 135.586 179.777 136.894C178.469 138.283 176.506 138.774 174.583 138.774C173.684 138.774 173.111 138.774 172.252 138.61C171.515 138.936 170.494 139.673 170.494 140.655C170.494 142.291 172.048 142.291 175.647 142.127C178.755 141.962 180.8 142.209 182.599 143.681C184.235 144.909 184.644 146.463 184.644 147.688C184.644 149.487 183.906 151.041 182.108 152.433C180.8 153.497 177.936 154.804 174.093 154.722C172.13 154.722 169.512 154.476 167.714 153.454ZM171.804 146.052C170.658 146.378 169.308 147.688 169.308 149.322C169.308 150.468 170.003 151.694 170.78 152.144C172.048 152.879 173.194 153.126 175.565 153.126C177.692 153.126 181.209 151.898 181.127 149.487C181.127 147.116 179.408 145.644 175.483 145.805L171.801 146.052H171.804ZM177.405 131.616C177.405 129.979 176.915 128.916 176.506 128.385C176.138 127.934 175.565 127.568 174.583 127.568C173.724 127.568 172.989 127.855 172.374 128.589C171.475 129.735 171.228 131.616 171.228 133.21C171.228 134.517 171.555 135.827 172.25 136.44C172.822 137.013 173.435 137.339 174.581 137.339C176.708 137.339 177.403 134.517 177.403 131.613L177.405 131.616Z" fill="#E8D28B"/>
<path d="M191.72 126.383C192.046 126.218 192.293 126.056 192.537 126.056C192.781 126.056 192.945 126.221 193.027 126.547L193.354 128.674H193.598C194.088 128.101 194.826 127.446 195.643 127.038C196.624 126.465 197.688 126.056 198.913 126.056C200.303 126.056 201.613 126.303 202.512 127.038C204.31 128.345 204.761 129.573 204.761 131.249V137.138C204.761 138.445 204.721 140.246 204.721 141.063C204.721 141.962 205.212 142.209 205.703 142.209H206.848C207.217 142.209 207.339 142.291 207.339 142.495V143.437C207.339 143.641 207.257 143.723 207.013 143.723C206.687 143.723 205.459 143.601 202.597 143.601C200.143 143.601 198.836 143.723 198.589 143.723C198.343 143.723 198.263 143.559 198.263 143.232V142.538C198.263 142.291 198.345 142.211 198.754 142.211H199.571C199.897 142.211 200.226 141.965 200.308 141.23C200.43 140.166 200.472 139.021 200.472 137.387V132.684C200.472 131.048 200.39 129.984 199.409 129.167C198.592 128.43 197.854 128.43 196.955 128.43C196.3 128.43 195.319 128.594 194.337 129.494C193.682 130.149 193.478 131.292 193.478 132.398V140.821C193.478 141.721 193.682 142.211 194.255 142.211H194.99C195.316 142.211 195.399 142.293 195.399 142.58V143.315C195.399 143.561 195.316 143.723 195.072 143.723C194.828 143.723 193.682 143.601 191.229 143.601C188.776 143.601 187.386 143.723 187.139 143.723C186.975 143.723 186.893 143.559 186.893 143.315V142.538C186.893 142.291 186.975 142.211 187.301 142.211H188.118C188.609 142.211 189.182 142.047 189.182 141.394V132.193C189.182 130.966 188.447 130.313 187.463 129.822L187.137 129.658C186.89 129.576 186.81 129.411 186.81 129.249V128.923C186.81 128.759 186.975 128.597 187.219 128.515L191.717 126.388L191.72 126.383Z" fill="#E8D28B"/>
<path d="M218.709 141.596C217.81 142.578 216.747 143.272 215.153 143.805C214.211 144.092 213.354 144.092 212.535 144.092C211.023 144.092 209.713 142.864 209.713 140.575C209.713 138.694 210.53 136.854 213.476 135.546C216.012 134.318 217.566 133.666 218.465 133.011V130.883C218.383 130.067 218.301 129.085 217.81 128.594C217.402 128.144 216.664 127.982 215.765 127.982C215.028 127.982 214.047 128.226 213.394 128.719C212.821 129.127 213.23 129.74 213.23 130.722C213.23 132.194 212.495 133.093 210.776 133.093C210.039 133.093 209.387 132.602 209.387 131.703C209.387 130.557 210.042 129.25 211.267 128.35C212.983 127.043 215.192 126.061 217.892 126.061C220.181 126.061 220.919 126.552 221.656 127.207C222.555 128.024 222.637 129.17 222.637 130.273L222.719 136.734V138.697C222.719 140.906 223.046 141.559 223.783 141.559C224.356 141.559 224.929 141.233 225.091 140.904C225.255 140.66 225.337 140.66 225.499 140.739L225.99 141.066C226.154 141.148 226.236 141.312 226.072 141.721C225.664 142.458 224.682 144.092 222.311 144.092C220.757 144.092 219.449 143.357 218.876 141.596H218.712H218.709ZM218.463 134.522C216.664 135.668 213.965 136.363 213.965 139.347C213.965 141.023 214.864 141.843 215.845 141.843C216.991 141.761 218.463 140.615 218.463 139.88V134.522Z" fill="#E8D28B"/>
</svg>
