<svg width="21" height="20" viewBox="0 0 21 20" fill="none" xmlns="http://www.w3.org/2000/svg">
<path d="M18.454 5.93409L18.4538 5.93319C17.9685 4.28795 16.5879 2.90714 14.9428 2.42159C13.6062 2.03291 12.8607 2.12275 12.3993 2.46725L18.454 5.93409ZM18.454 5.93409C18.8504 7.26873 18.7505 8.00778 18.3978 8.45873L18.3977 8.45866M18.454 5.93409L18.3977 8.45866M18.3977 8.45866L18.3912 8.46742M18.3977 8.45866L18.3912 8.46742M18.3912 8.46742C18.1813 8.74824 17.8754 8.92119 17.5082 9.02371C17.1373 9.12729 16.7347 9.15008 16.375 9.15008H13.9833C13.1613 9.15008 12.625 8.91929 12.2851 8.53951C11.9359 8.14951 11.7167 7.51717 11.7167 6.55842V4.48342C11.7167 3.71362 11.8259 2.89596 12.3992 2.46736L18.3912 8.46742Z" fill="#005E5E" stroke="#005E5E"/>
<path d="M16.2555 11.4607L16.2554 11.4607L16.261 11.467C16.3794 11.599 16.4358 11.7784 16.4124 11.9613L16.4123 11.9616C16.1801 13.7809 15.1798 15.4584 13.6727 16.5538L13.6714 16.5547C12.5163 17.3997 11.1616 17.8332 9.75831 17.8332C9.33049 17.8332 8.90514 17.7943 8.48137 17.7096L8.48137 17.7096L8.47588 17.7085C5.80295 17.2049 3.6697 15.0713 3.16628 12.407L3.16627 12.407C2.81641 10.5566 3.22027 8.71388 4.32083 7.20255L4.3211 7.20218C5.41647 5.69508 7.09397 4.69478 8.91329 4.46253L8.9152 4.46227C9.0894 4.43935 9.27645 4.496 9.40787 4.61383L9.40782 4.61389L9.41418 4.61939C9.55335 4.74001 9.63331 4.91823 9.63331 5.09988V8.08321C9.63331 9.82602 11.0488 11.2415 12.7916 11.2415H15.775C15.9566 11.2415 16.1349 11.3215 16.2555 11.4607Z" fill="#005E5E" stroke="#005E5E"/>
</svg>
