<svg width="327" height="102" viewBox="0 0 327 102" fill="none" xmlns="http://www.w3.org/2000/svg">
<rect x="1" y="0.5" width="325" height="101" rx="7.5" fill="#E6EFEF" stroke="#549393" stroke-dasharray="6 6"/>
<path d="M50.4883 54.5V48.5L48.4883 50.5" stroke="#005E5E" stroke-width="1.5" stroke-linecap="round" stroke-linejoin="round"/>
<path d="M50.4883 48.5L52.4883 50.5" stroke="#005E5E" stroke-width="1.5" stroke-linecap="round" stroke-linejoin="round"/>
<path d="M63.4883 47.5V52.5C63.4883 57.5 61.4883 59.5 56.4883 59.5H50.4883C45.4883 59.5 43.4883 57.5 43.4883 52.5V46.5C43.4883 41.5 45.4883 39.5 50.4883 39.5H55.4883" stroke="#005E5E" stroke-width="1.5" stroke-linecap="round" stroke-linejoin="round"/>
<path d="M63.4883 47.5H59.4883C56.4883 47.5 55.4883 46.5 55.4883 43.5V39.5L63.4883 47.5Z" stroke="#005E5E" stroke-width="1.5" stroke-linecap="round" stroke-linejoin="round"/>
<g clip-path="url(#clip0_525_4716)">
<path d="M94.2203 46.168C93.5016 46.168 92.8529 46.028 92.2743 45.748C91.6956 45.4587 91.2336 45.0247 90.8883 44.446C90.5523 43.8673 90.3843 43.1347 90.3843 42.248V36.2H92.1763V42.262C92.1763 43.0273 92.3583 43.5967 92.7223 43.97C93.0956 44.3433 93.6089 44.53 94.2623 44.53C94.9063 44.53 95.4149 44.3433 95.7883 43.97C96.1616 43.5967 96.3483 43.0273 96.3483 42.262V36.2H98.1403V42.248C98.1403 43.1347 97.9629 43.8673 97.6083 44.446C97.2536 45.0247 96.7776 45.4587 96.1803 45.748C95.5923 46.028 94.9389 46.168 94.2203 46.168ZM99.9276 49.08V39.056H101.524L101.72 40.05C101.944 39.742 102.238 39.4713 102.602 39.238C102.975 39.0047 103.456 38.888 104.044 38.888C104.697 38.888 105.28 39.0467 105.794 39.364C106.307 39.6813 106.713 40.1153 107.012 40.666C107.31 41.2167 107.46 41.842 107.46 42.542C107.46 43.242 107.31 43.8673 107.012 44.418C106.713 44.9593 106.307 45.3887 105.794 45.706C105.28 46.014 104.697 46.168 104.044 46.168C103.521 46.168 103.064 46.07 102.672 45.874C102.28 45.678 101.962 45.4027 101.72 45.048V49.08H99.9276ZM103.666 44.6C104.235 44.6 104.706 44.4087 105.08 44.026C105.453 43.6433 105.64 43.1487 105.64 42.542C105.64 41.9353 105.453 41.436 105.08 41.044C104.706 40.652 104.235 40.456 103.666 40.456C103.087 40.456 102.611 40.652 102.238 41.044C101.874 41.4267 101.692 41.9213 101.692 42.528C101.692 43.1347 101.874 43.634 102.238 44.026C102.611 44.4087 103.087 44.6 103.666 44.6ZM109.06 46V35.92H110.852V46H109.06ZM116.015 46.168C115.343 46.168 114.737 46.014 114.195 45.706C113.663 45.398 113.239 44.9733 112.921 44.432C112.613 43.8813 112.459 43.2467 112.459 42.528C112.459 41.8093 112.618 41.1793 112.935 40.638C113.253 40.0873 113.677 39.658 114.209 39.35C114.751 39.042 115.357 38.888 116.029 38.888C116.692 38.888 117.289 39.042 117.821 39.35C118.363 39.658 118.787 40.0873 119.095 40.638C119.413 41.1793 119.571 41.8093 119.571 42.528C119.571 43.2467 119.413 43.8813 119.095 44.432C118.787 44.9733 118.363 45.398 117.821 45.706C117.28 46.014 116.678 46.168 116.015 46.168ZM116.015 44.614C116.482 44.614 116.888 44.4413 117.233 44.096C117.579 43.7413 117.751 43.2187 117.751 42.528C117.751 41.8373 117.579 41.3193 117.233 40.974C116.888 40.6193 116.487 40.442 116.029 40.442C115.553 40.442 115.143 40.6193 114.797 40.974C114.461 41.3193 114.293 41.8373 114.293 42.528C114.293 43.2187 114.461 43.7413 114.797 44.096C115.143 44.4413 115.549 44.614 116.015 44.614ZM123.568 46.168C122.97 46.168 122.48 46.0747 122.098 45.888C121.715 45.692 121.43 45.4353 121.244 45.118C121.057 44.8007 120.964 44.4507 120.964 44.068C120.964 43.424 121.216 42.9013 121.72 42.5C122.224 42.0987 122.98 41.898 123.988 41.898H125.752V41.73C125.752 41.254 125.616 40.904 125.346 40.68C125.075 40.456 124.739 40.344 124.338 40.344C123.974 40.344 123.656 40.4327 123.386 40.61C123.115 40.778 122.947 41.03 122.882 41.366H121.132C121.178 40.862 121.346 40.4233 121.636 40.05C121.934 39.6767 122.317 39.392 122.784 39.196C123.25 38.9907 123.773 38.888 124.352 38.888C125.341 38.888 126.12 39.1353 126.69 39.63C127.259 40.1247 127.544 40.8247 127.544 41.73V46H126.018L125.85 44.88C125.644 45.2533 125.355 45.5613 124.982 45.804C124.618 46.0467 124.146 46.168 123.568 46.168ZM123.974 44.768C124.487 44.768 124.884 44.6 125.164 44.264C125.453 43.928 125.635 43.5127 125.71 43.018H124.184C123.708 43.018 123.367 43.1067 123.162 43.284C122.956 43.452 122.854 43.662 122.854 43.914C122.854 44.1847 122.956 44.3947 123.162 44.544C123.367 44.6933 123.638 44.768 123.974 44.768ZM132.446 46.168C131.792 46.168 131.209 46.0093 130.696 45.692C130.182 45.3747 129.776 44.9407 129.478 44.39C129.179 43.8393 129.03 43.214 129.03 42.514C129.03 41.814 129.179 41.1933 129.478 40.652C129.776 40.1013 130.182 39.672 130.696 39.364C131.209 39.0467 131.792 38.888 132.446 38.888C132.968 38.888 133.426 38.986 133.818 39.182C134.21 39.378 134.527 39.6533 134.77 40.008V35.92H136.562V46H134.966L134.77 45.006C134.546 45.314 134.247 45.5847 133.874 45.818C133.51 46.0513 133.034 46.168 132.446 46.168ZM132.824 44.6C133.402 44.6 133.874 44.4087 134.238 44.026C134.611 43.634 134.798 43.1347 134.798 42.528C134.798 41.9213 134.611 41.4267 134.238 41.044C133.874 40.652 133.402 40.456 132.824 40.456C132.254 40.456 131.783 40.6473 131.41 41.03C131.036 41.4127 130.85 41.9073 130.85 42.514C130.85 43.1207 131.036 43.62 131.41 44.012C131.783 44.404 132.254 44.6 132.824 44.6ZM141.765 46V36.2H143.557V46H141.765ZM145.456 46V36.2H148.802C149.95 36.2 150.893 36.4053 151.63 36.816C152.377 37.2173 152.927 37.7867 153.282 38.524C153.646 39.252 153.828 40.1107 153.828 41.1C153.828 42.0893 153.646 42.9527 153.282 43.69C152.927 44.418 152.377 44.9873 151.63 45.398C150.893 45.7993 149.95 46 148.802 46H145.456ZM147.248 44.46H148.718C149.539 44.46 150.188 44.3293 150.664 44.068C151.14 43.7973 151.481 43.4147 151.686 42.92C151.891 42.416 151.994 41.8093 151.994 41.1C151.994 40.4 151.891 39.798 151.686 39.294C151.481 38.79 151.14 38.4027 150.664 38.132C150.188 37.8613 149.539 37.726 148.718 37.726H147.248V44.46Z" fill="#005E5E"/>
</g>
<path d="M92.3494 59.68L92.4934 57.844L91.0054 58.888L90.5854 58.156L92.2534 57.424L90.5974 56.704L90.9934 55.996L92.5054 57.04L92.3374 55.204H93.1534L92.9734 57.04L94.4734 55.996L94.8574 56.692L93.2014 57.436L94.8694 58.168L94.4734 58.876L92.9734 57.844L93.1414 59.68H92.3494ZM98.7998 65.74C98.3678 65.324 97.9678 64.828 97.5998 64.252C97.2318 63.684 96.9358 63.044 96.7118 62.332C96.4958 61.612 96.3878 60.836 96.3878 60.004C96.3878 59.172 96.4958 58.4 96.7118 57.688C96.9358 56.968 97.2318 56.324 97.5998 55.756C97.9678 55.18 98.3678 54.684 98.7998 54.268H99.8318V54.364C99.0958 55.084 98.5038 55.928 98.0558 56.896C97.6158 57.856 97.3958 58.892 97.3958 60.004C97.3958 61.116 97.6198 62.156 98.0678 63.124C98.5158 64.084 99.1038 64.924 99.8318 65.644V65.74H98.7998ZM101.705 64.06C101.505 64.06 101.337 63.996 101.201 63.868C101.073 63.732 101.009 63.568 101.009 63.376C101.009 63.184 101.073 63.024 101.201 62.896C101.337 62.76 101.505 62.692 101.705 62.692C101.897 62.692 102.057 62.76 102.185 62.896C102.321 63.024 102.389 63.184 102.389 63.376C102.389 63.568 102.321 63.732 102.185 63.868C102.057 63.996 101.897 64.06 101.705 64.06ZM104.6 56.728C104.408 56.728 104.244 56.664 104.108 56.536C103.972 56.4 103.904 56.232 103.904 56.032C103.904 55.84 103.972 55.68 104.108 55.552C104.244 55.424 104.408 55.36 104.6 55.36C104.792 55.36 104.952 55.424 105.08 55.552C105.216 55.68 105.284 55.84 105.284 56.032C105.284 56.232 105.216 56.4 105.08 56.536C104.952 56.664 104.792 56.728 104.6 56.728ZM102.776 66.64V65.776H103.244C103.54 65.776 103.752 65.712 103.88 65.584C104.016 65.464 104.084 65.256 104.084 64.96V58.048H105.092V64.984C105.092 65.56 104.948 65.98 104.66 66.244C104.372 66.508 103.952 66.64 103.4 66.64H102.776ZM107.087 66.64V58.048H107.999L108.095 59.032C108.287 58.744 108.559 58.484 108.911 58.252C109.271 58.02 109.727 57.904 110.279 57.904C110.871 57.904 111.387 58.04 111.827 58.312C112.267 58.584 112.607 58.956 112.847 59.428C113.095 59.9 113.219 60.436 113.219 61.036C113.219 61.636 113.095 62.172 112.847 62.644C112.607 63.108 112.263 63.476 111.815 63.748C111.375 64.012 110.859 64.144 110.267 64.144C109.779 64.144 109.343 64.044 108.959 63.844C108.583 63.644 108.295 63.364 108.095 63.004V66.64H107.087ZM110.159 63.268C110.559 63.268 110.911 63.176 111.215 62.992C111.519 62.8 111.759 62.536 111.935 62.2C112.111 61.864 112.199 61.472 112.199 61.024C112.199 60.576 112.111 60.184 111.935 59.848C111.759 59.512 111.519 59.252 111.215 59.068C110.911 58.876 110.559 58.78 110.159 58.78C109.759 58.78 109.407 58.876 109.103 59.068C108.799 59.252 108.559 59.512 108.383 59.848C108.207 60.184 108.119 60.576 108.119 61.024C108.119 61.472 108.207 61.864 108.383 62.2C108.559 62.536 108.799 62.8 109.103 62.992C109.407 63.176 109.759 63.268 110.159 63.268ZM117.538 64.144C116.97 64.144 116.466 64.016 116.026 63.76C115.586 63.496 115.238 63.132 114.982 62.668C114.734 62.204 114.61 61.656 114.61 61.024C114.61 60.4 114.734 59.856 114.982 59.392C115.23 58.92 115.574 58.556 116.014 58.3C116.462 58.036 116.978 57.904 117.562 57.904C118.138 57.904 118.634 58.036 119.05 58.3C119.474 58.556 119.798 58.896 120.022 59.32C120.246 59.744 120.358 60.2 120.358 60.688C120.358 60.776 120.354 60.864 120.346 60.952C120.346 61.04 120.346 61.14 120.346 61.252H115.606C115.63 61.708 115.734 62.088 115.918 62.392C116.11 62.688 116.346 62.912 116.626 63.064C116.914 63.216 117.218 63.292 117.538 63.292C117.954 63.292 118.302 63.196 118.582 63.004C118.862 62.812 119.066 62.552 119.194 62.224H120.19C120.03 62.776 119.722 63.236 119.266 63.604C118.818 63.964 118.242 64.144 117.538 64.144ZM117.538 58.756C117.058 58.756 116.63 58.904 116.254 59.2C115.886 59.488 115.674 59.912 115.618 60.472H119.362C119.338 59.936 119.154 59.516 118.81 59.212C118.466 58.908 118.042 58.756 117.538 58.756ZM124.251 62.128C123.915 62.128 123.607 62.084 123.327 61.996L122.727 62.56C122.815 62.624 122.923 62.68 123.051 62.728C123.187 62.768 123.379 62.808 123.627 62.848C123.875 62.88 124.223 62.916 124.671 62.956C125.471 63.012 126.043 63.196 126.387 63.508C126.731 63.82 126.903 64.228 126.903 64.732C126.903 65.076 126.807 65.404 126.615 65.716C126.431 66.028 126.143 66.284 125.751 66.484C125.367 66.684 124.871 66.784 124.263 66.784C123.727 66.784 123.251 66.712 122.835 66.568C122.419 66.432 122.095 66.22 121.863 65.932C121.631 65.652 121.515 65.296 121.515 64.864C121.515 64.64 121.575 64.396 121.695 64.132C121.815 63.876 122.039 63.632 122.367 63.4C122.191 63.328 122.039 63.252 121.911 63.172C121.791 63.084 121.679 62.988 121.575 62.884V62.608L122.595 61.6C122.123 61.2 121.887 60.672 121.887 60.016C121.887 59.624 121.979 59.268 122.163 58.948C122.347 58.628 122.615 58.376 122.967 58.192C123.319 58 123.747 57.904 124.251 57.904C124.595 57.904 124.907 57.952 125.187 58.048H127.383V58.804L126.267 58.852C126.499 59.188 126.615 59.576 126.615 60.016C126.615 60.408 126.519 60.764 126.327 61.084C126.143 61.404 125.875 61.66 125.523 61.852C125.179 62.036 124.755 62.128 124.251 62.128ZM124.251 61.3C124.675 61.3 125.011 61.192 125.259 60.976C125.515 60.752 125.643 60.432 125.643 60.016C125.643 59.608 125.515 59.296 125.259 59.08C125.011 58.856 124.675 58.744 124.251 58.744C123.819 58.744 123.475 58.856 123.219 59.08C122.971 59.296 122.847 59.608 122.847 60.016C122.847 60.432 122.971 60.752 123.219 60.976C123.475 61.192 123.819 61.3 124.251 61.3ZM122.499 64.768C122.499 65.168 122.667 65.464 123.003 65.656C123.339 65.856 123.759 65.956 124.263 65.956C124.759 65.956 125.155 65.848 125.451 65.632C125.755 65.416 125.907 65.128 125.907 64.768C125.907 64.512 125.803 64.288 125.595 64.096C125.387 63.912 125.003 63.804 124.443 63.772C124.003 63.74 123.623 63.7 123.303 63.652C122.975 63.828 122.759 64.016 122.655 64.216C122.551 64.424 122.499 64.608 122.499 64.768ZM127.956 65.428L128.652 62.776H129.696L128.652 65.428H127.956ZM134.896 64.06C134.696 64.06 134.528 63.996 134.392 63.868C134.264 63.732 134.2 63.568 134.2 63.376C134.2 63.184 134.264 63.024 134.392 62.896C134.528 62.76 134.696 62.692 134.896 62.692C135.088 62.692 135.248 62.76 135.376 62.896C135.512 63.024 135.58 63.184 135.58 63.376C135.58 63.568 135.512 63.732 135.376 63.868C135.248 63.996 135.088 64.06 134.896 64.06ZM137.132 66.64V58.048H138.044L138.14 59.032C138.332 58.744 138.604 58.484 138.956 58.252C139.316 58.02 139.772 57.904 140.324 57.904C140.916 57.904 141.432 58.04 141.872 58.312C142.312 58.584 142.652 58.956 142.892 59.428C143.14 59.9 143.264 60.436 143.264 61.036C143.264 61.636 143.14 62.172 142.892 62.644C142.652 63.108 142.308 63.476 141.86 63.748C141.42 64.012 140.904 64.144 140.312 64.144C139.824 64.144 139.388 64.044 139.004 63.844C138.628 63.644 138.34 63.364 138.14 63.004V66.64H137.132ZM140.204 63.268C140.604 63.268 140.956 63.176 141.26 62.992C141.564 62.8 141.804 62.536 141.98 62.2C142.156 61.864 142.244 61.472 142.244 61.024C142.244 60.576 142.156 60.184 141.98 59.848C141.804 59.512 141.564 59.252 141.26 59.068C140.956 58.876 140.604 58.78 140.204 58.78C139.804 58.78 139.452 58.876 139.148 59.068C138.844 59.252 138.604 59.512 138.428 59.848C138.252 60.184 138.164 60.576 138.164 61.024C138.164 61.472 138.252 61.864 138.428 62.2C138.604 62.536 138.844 62.8 139.148 62.992C139.452 63.176 139.804 63.268 140.204 63.268ZM144.907 64V58.048H145.819L145.879 59.116C146.071 58.74 146.347 58.444 146.707 58.228C147.067 58.012 147.475 57.904 147.931 57.904C148.635 57.904 149.195 58.12 149.611 58.552C150.035 58.976 150.247 59.632 150.247 60.52V64H149.239V60.628C149.239 59.388 148.727 58.768 147.703 58.768C147.191 58.768 146.763 58.956 146.419 59.332C146.083 59.7 145.915 60.228 145.915 60.916V64H144.907ZM154.366 62.128C154.03 62.128 153.722 62.084 153.442 61.996L152.842 62.56C152.93 62.624 153.038 62.68 153.166 62.728C153.302 62.768 153.494 62.808 153.742 62.848C153.99 62.88 154.338 62.916 154.786 62.956C155.586 63.012 156.158 63.196 156.502 63.508C156.846 63.82 157.018 64.228 157.018 64.732C157.018 65.076 156.922 65.404 156.73 65.716C156.546 66.028 156.258 66.284 155.866 66.484C155.482 66.684 154.986 66.784 154.378 66.784C153.842 66.784 153.366 66.712 152.95 66.568C152.534 66.432 152.21 66.22 151.978 65.932C151.746 65.652 151.63 65.296 151.63 64.864C151.63 64.64 151.69 64.396 151.81 64.132C151.93 63.876 152.154 63.632 152.482 63.4C152.306 63.328 152.154 63.252 152.026 63.172C151.906 63.084 151.794 62.988 151.69 62.884V62.608L152.71 61.6C152.238 61.2 152.002 60.672 152.002 60.016C152.002 59.624 152.094 59.268 152.278 58.948C152.462 58.628 152.73 58.376 153.082 58.192C153.434 58 153.862 57.904 154.366 57.904C154.71 57.904 155.022 57.952 155.302 58.048H157.498V58.804L156.382 58.852C156.614 59.188 156.73 59.576 156.73 60.016C156.73 60.408 156.634 60.764 156.442 61.084C156.258 61.404 155.99 61.66 155.638 61.852C155.294 62.036 154.87 62.128 154.366 62.128ZM154.366 61.3C154.79 61.3 155.126 61.192 155.374 60.976C155.63 60.752 155.758 60.432 155.758 60.016C155.758 59.608 155.63 59.296 155.374 59.08C155.126 58.856 154.79 58.744 154.366 58.744C153.934 58.744 153.59 58.856 153.334 59.08C153.086 59.296 152.962 59.608 152.962 60.016C152.962 60.432 153.086 60.752 153.334 60.976C153.59 61.192 153.934 61.3 154.366 61.3ZM152.614 64.768C152.614 65.168 152.782 65.464 153.118 65.656C153.454 65.856 153.874 65.956 154.378 65.956C154.874 65.956 155.27 65.848 155.566 65.632C155.87 65.416 156.022 65.128 156.022 64.768C156.022 64.512 155.918 64.288 155.71 64.096C155.502 63.912 155.118 63.804 154.558 63.772C154.118 63.74 153.738 63.7 153.418 63.652C153.09 63.828 152.874 64.016 152.77 64.216C152.666 64.424 152.614 64.608 152.614 64.768ZM165.003 64.144C164.443 64.144 163.939 64.016 163.491 63.76C163.043 63.504 162.687 63.144 162.423 62.68C162.167 62.208 162.039 61.656 162.039 61.024C162.039 60.392 162.171 59.844 162.435 59.38C162.699 58.908 163.055 58.544 163.503 58.288C163.959 58.032 164.467 57.904 165.027 57.904C165.587 57.904 166.091 58.032 166.539 58.288C166.987 58.544 167.339 58.908 167.595 59.38C167.859 59.844 167.991 60.392 167.991 61.024C167.991 61.656 167.859 62.208 167.595 62.68C167.331 63.144 166.971 63.504 166.515 63.76C166.067 64.016 165.563 64.144 165.003 64.144ZM165.003 63.28C165.347 63.28 165.667 63.196 165.963 63.028C166.259 62.86 166.499 62.608 166.683 62.272C166.867 61.936 166.959 61.52 166.959 61.024C166.959 60.528 166.867 60.112 166.683 59.776C166.507 59.44 166.271 59.188 165.975 59.02C165.679 58.852 165.363 58.768 165.027 58.768C164.683 58.768 164.363 58.852 164.067 59.02C163.771 59.188 163.531 59.44 163.347 59.776C163.163 60.112 163.071 60.528 163.071 61.024C163.071 61.52 163.163 61.936 163.347 62.272C163.531 62.608 163.767 62.86 164.055 63.028C164.351 63.196 164.667 63.28 165.003 63.28ZM169.633 64V58.048H170.545L170.629 59.188C170.813 58.796 171.093 58.484 171.469 58.252C171.845 58.02 172.309 57.904 172.861 57.904V58.96H172.585C172.233 58.96 171.909 59.024 171.613 59.152C171.317 59.272 171.081 59.48 170.905 59.776C170.729 60.072 170.641 60.48 170.641 61V64H169.633ZM177.996 64.06C177.796 64.06 177.628 63.996 177.492 63.868C177.364 63.732 177.3 63.568 177.3 63.376C177.3 63.184 177.364 63.024 177.492 62.896C177.628 62.76 177.796 62.692 177.996 62.692C178.188 62.692 178.348 62.76 178.476 62.896C178.612 63.024 178.68 63.184 178.68 63.376C178.68 63.568 178.612 63.732 178.476 63.868C178.348 63.996 178.188 64.06 177.996 64.06ZM180.232 66.64V58.048H181.144L181.24 59.032C181.432 58.744 181.704 58.484 182.056 58.252C182.416 58.02 182.872 57.904 183.424 57.904C184.016 57.904 184.532 58.04 184.972 58.312C185.412 58.584 185.752 58.956 185.992 59.428C186.24 59.9 186.364 60.436 186.364 61.036C186.364 61.636 186.24 62.172 185.992 62.644C185.752 63.108 185.408 63.476 184.96 63.748C184.52 64.012 184.004 64.144 183.412 64.144C182.924 64.144 182.488 64.044 182.104 63.844C181.728 63.644 181.44 63.364 181.24 63.004V66.64H180.232ZM183.304 63.268C183.704 63.268 184.056 63.176 184.36 62.992C184.664 62.8 184.904 62.536 185.08 62.2C185.256 61.864 185.344 61.472 185.344 61.024C185.344 60.576 185.256 60.184 185.08 59.848C184.904 59.512 184.664 59.252 184.36 59.068C184.056 58.876 183.704 58.78 183.304 58.78C182.904 58.78 182.552 58.876 182.248 59.068C181.944 59.252 181.704 59.512 181.528 59.848C181.352 60.184 181.264 60.576 181.264 61.024C181.264 61.472 181.352 61.864 181.528 62.2C181.704 62.536 181.944 62.8 182.248 62.992C182.552 63.176 182.904 63.268 183.304 63.268ZM190.707 64.144C190.115 64.144 189.595 64.008 189.147 63.736C188.707 63.464 188.363 63.092 188.115 62.62C187.875 62.148 187.755 61.612 187.755 61.012C187.755 60.412 187.879 59.88 188.127 59.416C188.375 58.944 188.719 58.576 189.159 58.312C189.599 58.04 190.119 57.904 190.719 57.904C191.207 57.904 191.639 58.004 192.015 58.204C192.391 58.404 192.683 58.684 192.891 59.044V55.36H193.899V64H192.987L192.891 63.016C192.699 63.304 192.423 63.564 192.063 63.796C191.703 64.028 191.251 64.144 190.707 64.144ZM190.815 63.268C191.215 63.268 191.567 63.176 191.871 62.992C192.183 62.8 192.423 62.536 192.591 62.2C192.767 61.864 192.855 61.472 192.855 61.024C192.855 60.576 192.767 60.184 192.591 59.848C192.423 59.512 192.183 59.252 191.871 59.068C191.567 58.876 191.215 58.78 190.815 58.78C190.423 58.78 190.071 58.876 189.759 59.068C189.455 59.252 189.215 59.512 189.039 59.848C188.871 60.184 188.787 60.576 188.787 61.024C188.787 61.472 188.871 61.864 189.039 62.2C189.215 62.536 189.455 62.8 189.759 62.992C190.071 63.176 190.423 63.268 190.815 63.268ZM196.106 64V58.9H195.206V58.048H196.106V57.016C196.106 56.44 196.25 56.02 196.538 55.756C196.826 55.492 197.246 55.36 197.798 55.36H198.398V56.224H197.954C197.65 56.224 197.434 56.288 197.306 56.416C197.178 56.536 197.114 56.744 197.114 57.04V58.048H198.578V58.9H197.114V64H196.106ZM199.646 65.74V65.644C200.374 64.924 200.962 64.084 201.41 63.124C201.866 62.156 202.094 61.116 202.094 60.004C202.094 58.892 201.87 57.856 201.422 56.896C200.974 55.928 200.386 55.084 199.658 54.364V54.268H200.678C201.118 54.684 201.518 55.18 201.878 55.756C202.246 56.324 202.538 56.968 202.754 57.688C202.978 58.4 203.09 59.172 203.09 60.004C203.09 60.836 202.978 61.612 202.754 62.332C202.538 63.044 202.246 63.684 201.878 64.252C201.518 64.828 201.118 65.324 200.678 65.74H199.646ZM210.311 64.144C209.607 64.144 209.047 63.932 208.631 63.508C208.215 63.076 208.007 62.416 208.007 61.528V58.048H209.015V61.42C209.015 62.66 209.523 63.28 210.539 63.28C211.059 63.28 211.487 63.096 211.823 62.728C212.167 62.352 212.339 61.82 212.339 61.132V58.048H213.347V64H212.435L212.363 62.932C212.179 63.308 211.903 63.604 211.535 63.82C211.175 64.036 210.767 64.144 210.311 64.144ZM215.246 66.64V58.048H216.158L216.254 59.032C216.446 58.744 216.718 58.484 217.07 58.252C217.43 58.02 217.886 57.904 218.438 57.904C219.03 57.904 219.546 58.04 219.986 58.312C220.426 58.584 220.766 58.956 221.006 59.428C221.254 59.9 221.378 60.436 221.378 61.036C221.378 61.636 221.254 62.172 221.006 62.644C220.766 63.108 220.422 63.476 219.974 63.748C219.534 64.012 219.018 64.144 218.426 64.144C217.938 64.144 217.502 64.044 217.118 63.844C216.742 63.644 216.454 63.364 216.254 63.004V66.64H215.246ZM218.318 63.268C218.718 63.268 219.07 63.176 219.374 62.992C219.678 62.8 219.918 62.536 220.094 62.2C220.27 61.864 220.358 61.472 220.358 61.024C220.358 60.576 220.27 60.184 220.094 59.848C219.918 59.512 219.678 59.252 219.374 59.068C219.07 58.876 218.718 58.78 218.318 58.78C217.918 58.78 217.566 58.876 217.262 59.068C216.958 59.252 216.718 59.512 216.542 59.848C216.366 60.184 216.278 60.576 216.278 61.024C216.278 61.472 216.366 61.864 216.542 62.2C216.718 62.536 216.958 62.8 217.262 62.992C217.566 63.176 217.918 63.268 218.318 63.268ZM228.789 64C228.245 64 227.817 63.868 227.505 63.604C227.193 63.34 227.037 62.864 227.037 62.176V58.9H226.005V58.048H227.037L227.169 56.62H228.045V58.048H229.797V58.9H228.045V62.176C228.045 62.552 228.121 62.808 228.273 62.944C228.425 63.072 228.693 63.136 229.077 63.136H229.701V64H228.789ZM233.866 64.144C233.306 64.144 232.802 64.016 232.354 63.76C231.906 63.504 231.55 63.144 231.286 62.68C231.03 62.208 230.902 61.656 230.902 61.024C230.902 60.392 231.034 59.844 231.298 59.38C231.562 58.908 231.918 58.544 232.366 58.288C232.822 58.032 233.33 57.904 233.89 57.904C234.45 57.904 234.954 58.032 235.402 58.288C235.85 58.544 236.202 58.908 236.458 59.38C236.722 59.844 236.854 60.392 236.854 61.024C236.854 61.656 236.722 62.208 236.458 62.68C236.194 63.144 235.834 63.504 235.378 63.76C234.93 64.016 234.426 64.144 233.866 64.144ZM233.866 63.28C234.21 63.28 234.53 63.196 234.826 63.028C235.122 62.86 235.362 62.608 235.546 62.272C235.73 61.936 235.822 61.52 235.822 61.024C235.822 60.528 235.73 60.112 235.546 59.776C235.37 59.44 235.134 59.188 234.838 59.02C234.542 58.852 234.226 58.768 233.89 58.768C233.546 58.768 233.226 58.852 232.93 59.02C232.634 59.188 232.394 59.44 232.21 59.776C232.026 60.112 231.934 60.528 231.934 61.024C231.934 61.52 232.026 61.936 232.21 62.272C232.394 62.608 232.63 62.86 232.918 63.028C233.214 63.196 233.53 63.28 233.866 63.28ZM242.799 64V56.728L241.443 57.028V56.332L243.135 55.6H243.819V64H242.799ZM249.108 64.144C248.364 64.144 247.72 63.964 247.176 63.604C246.64 63.236 246.228 62.728 245.94 62.08C245.652 61.424 245.508 60.664 245.508 59.8C245.508 58.936 245.652 58.18 245.94 57.532C246.228 56.876 246.64 56.368 247.176 56.008C247.72 55.64 248.364 55.456 249.108 55.456C249.852 55.456 250.492 55.64 251.028 56.008C251.564 56.368 251.976 56.876 252.264 57.532C252.552 58.18 252.696 58.936 252.696 59.8C252.696 60.664 252.552 61.424 252.264 62.08C251.976 62.728 251.564 63.236 251.028 63.604C250.492 63.964 249.852 64.144 249.108 64.144ZM249.108 63.256C249.596 63.256 250.032 63.12 250.416 62.848C250.808 62.568 251.112 62.172 251.328 61.66C251.552 61.14 251.664 60.52 251.664 59.8C251.664 59.08 251.552 58.464 251.328 57.952C251.112 57.44 250.808 57.048 250.416 56.776C250.032 56.496 249.596 56.356 249.108 56.356C248.612 56.356 248.172 56.496 247.788 56.776C247.404 57.048 247.1 57.44 246.876 57.952C246.652 58.464 246.54 59.08 246.54 59.8C246.54 60.52 246.652 61.14 246.876 61.66C247.1 62.172 247.404 62.568 247.788 62.848C248.172 63.12 248.612 63.256 249.108 63.256ZM254.392 64V55.6H255.568L258.592 61.456L261.592 55.6H262.78V64H261.772V57.4L258.964 62.8H258.208L255.4 57.412V64H254.392ZM264.792 64V55.6H267.744C268.336 55.6 268.824 55.696 269.208 55.888C269.6 56.072 269.892 56.328 270.084 56.656C270.276 56.976 270.372 57.336 270.372 57.736C270.372 58.28 270.224 58.708 269.928 59.02C269.64 59.332 269.292 59.548 268.884 59.668C269.196 59.724 269.48 59.848 269.736 60.04C269.992 60.232 270.192 60.472 270.336 60.76C270.488 61.048 270.564 61.364 270.564 61.708C270.564 62.132 270.46 62.52 270.252 62.872C270.044 63.216 269.736 63.492 269.328 63.7C268.92 63.9 268.424 64 267.84 64H264.792ZM265.8 59.272H267.672C268.208 59.272 268.62 59.148 268.908 58.9C269.196 58.644 269.34 58.292 269.34 57.844C269.34 57.42 269.196 57.08 268.908 56.824C268.628 56.568 268.204 56.44 267.636 56.44H265.8V59.272ZM265.8 63.16H267.732C268.308 63.16 268.752 63.028 269.064 62.764C269.376 62.492 269.532 62.116 269.532 61.636C269.532 61.164 269.368 60.788 269.04 60.508C268.712 60.22 268.268 60.076 267.708 60.076H265.8V63.16Z" fill="#222222"/>
<defs>
<clipPath id="clip0_525_4716">
<rect x="89.4883" y="31" width="65" height="20" rx="6" fill="white"/>
</clipPath>
</defs>
</svg>
