<svg width="20" height="20" viewBox="0 0 20 20" fill="none" xmlns="http://www.w3.org/2000/svg">
<circle cx="10.375" cy="9.94995" r="9.625" fill="#E6EFEF"/>
<rect width="12" height="12" transform="translate(3.95833 3.5332)" fill="#E6EFEF"/>
<path d="M10.4033 6.47314H6.51332C5.65832 6.47314 4.95833 7.17314 4.95833 8.02814V13.7081C4.95833 14.4331 5.47833 14.7431 6.11333 14.3881L8.07833 13.2931C8.28833 13.1781 8.62833 13.1781 8.83333 13.2931L10.7983 14.3881C11.4333 14.7431 11.9533 14.4331 11.9533 13.7081V8.02814C11.9583 7.17314 11.2583 6.47314 10.4033 6.47314Z" stroke="#005E5E" stroke-width="0.802083" stroke-linecap="round" stroke-linejoin="round"/>
<path d="M11.9583 8.02814V13.7081C11.9583 14.4331 11.4383 14.7381 10.8033 14.3881L8.83834 13.2931C8.62834 13.1781 8.28833 13.1781 8.07833 13.2931L6.11333 14.3881C5.47833 14.7381 4.95833 14.4331 4.95833 13.7081V8.02814C4.95833 7.17314 5.65832 6.47314 6.51332 6.47314H10.4033C11.2583 6.47314 11.9583 7.17314 11.9583 8.02814Z" stroke="#005E5E" stroke-width="0.802083" stroke-linecap="round" stroke-linejoin="round"/>
<path d="M14.9583 6.0882V11.7682C14.9583 12.4932 14.4383 12.7982 13.8033 12.4482L11.9583 11.4182V8.0282C11.9583 7.1732 11.2583 6.47321 10.4033 6.47321H7.95833V6.0882C7.95833 5.2332 8.65832 4.5332 9.51332 4.5332H13.4033C14.2583 4.5332 14.9583 5.2332 14.9583 6.0882Z" stroke="#005E5E" stroke-width="0.802083" stroke-linecap="round" stroke-linejoin="round"/>
</svg>
