<svg width="21" height="20" viewBox="0 0 21 20" fill="none" xmlns="http://www.w3.org/2000/svg">
<path d="M11.9881 2.7344L11.9884 2.73459L16.7883 6.09286C16.7883 6.09288 16.7883 6.0929 16.7883 6.09292C17.1659 6.35722 17.5281 6.79454 17.7963 7.30839C18.0646 7.82226 18.2167 8.37001 18.2167 8.83324V14.4832C18.2167 16.3321 16.7155 17.8332 14.8667 17.8332H5.88333C4.03587 17.8332 2.53333 16.3252 2.53333 14.4749V8.72491C2.53333 8.29547 2.6708 7.77556 2.91523 7.2791C3.15954 6.78292 3.48939 6.35345 3.83251 6.08583L3.83262 6.08574L8.00624 2.82848C8.00645 2.82831 8.00667 2.82814 8.00689 2.82798C9.09206 1.98768 10.8595 1.94365 11.9881 2.7344ZM10.375 16.1249C10.9928 16.1249 11.5 15.6177 11.5 14.9999V12.4999C11.5 11.8821 10.9928 11.3749 10.375 11.3749C9.75718 11.3749 9.24999 11.8821 9.24999 12.4999V14.9999C9.24999 15.6177 9.75718 16.1249 10.375 16.1249Z" fill="#005E5E" stroke="white"/>
</svg>
