<svg width="20" height="20" viewBox="0 0 20 20" fill="none" xmlns="http://www.w3.org/2000/svg">
<path d="M10 5.3667V8.1417" stroke="#005E5E" stroke-width="1.25" stroke-miterlimit="10" stroke-linecap="round"/>
<path d="M10.0167 1.66675C6.95001 1.66675 4.46667 4.15008 4.46667 7.21675V8.96675C4.46667 9.53341 4.23334 10.3834 3.94167 10.8667L2.88334 12.6334C2.23334 13.7251 2.68334 14.9417 3.88334 15.3417C7.86667 16.6667 12.175 16.6667 16.1583 15.3417C17.2833 14.9667 17.7667 13.6501 17.1583 12.6334L16.1 10.8667C15.8083 10.3834 15.575 9.52508 15.575 8.96675V7.21675C15.5667 4.16675 13.0667 1.66675 10.0167 1.66675Z" stroke="#005E5E" stroke-width="1.25" stroke-miterlimit="10" stroke-linecap="round"/>
<path d="M12.775 15.6833C12.775 17.2083 11.525 18.4583 10 18.4583C9.24167 18.4583 8.54167 18.1417 8.04167 17.6417C7.54167 17.1417 7.22501 16.4417 7.22501 15.6833" stroke="#005E5E" stroke-width="1.25" stroke-miterlimit="10"/>
</svg>
