<svg width="21" height="20" viewBox="0 0 21 20" fill="none" xmlns="http://www.w3.org/2000/svg">
<path d="M10.7583 9.05841C10.675 9.05008 10.575 9.05008 10.4833 9.05841C8.49999 8.99175 6.92499 7.36675 6.92499 5.36675C6.92499 3.32508 8.57499 1.66675 10.625 1.66675C12.6667 1.66675 14.325 3.32508 14.325 5.36675C14.3167 7.36675 12.7417 8.99175 10.7583 9.05841Z" stroke="#64748B" stroke-width="1.5" stroke-linecap="round" stroke-linejoin="round"/>
<path d="M6.59166 12.1333C4.575 13.4833 4.575 15.6833 6.59166 17.0249C8.88333 18.5583 12.6417 18.5583 14.9333 17.0249C16.95 15.6749 16.95 13.4749 14.9333 12.1333C12.65 10.6083 8.89166 10.6083 6.59166 12.1333Z" stroke="#64748B" stroke-width="1.5" stroke-linecap="round" stroke-linejoin="round"/>
</svg>
