<svg width="71" height="70" viewBox="0 0 71 70" fill="none" xmlns="http://www.w3.org/2000/svg">
<circle opacity="0.05" cx="35.5" cy="34.75" r="34.75" fill="#337E7E"/>
<circle opacity="0.1" cx="35.5002" cy="34.75" r="30.8889" fill="#337E7E"/>
<circle opacity="0.3" cx="35.5001" cy="34.7501" r="26.4762" fill="#337E7E"/>
<circle opacity="0.6" cx="35.5005" cy="34.75" r="22.0635" fill="#337E7E"/>
<circle cx="35.5003" cy="34.75" r="17.1605" fill="#337E7E"/>
<path fill-rule="evenodd" clip-rule="evenodd" d="M45.1277 26.3946C44.9319 26.1633 44.5794 26.0863 44.3444 26.279C41.9552 27.9362 39.6835 29.8247 37.6076 31.906C36.0801 33.4476 34.6701 35.0663 33.3776 36.8007C33.1426 37.109 32.7117 37.109 32.4767 36.8392C31.9284 36.2611 31.3409 35.683 30.7142 35.2205C29.4217 34.2184 28.0116 33.4476 26.5233 32.9466C26.21 32.831 25.8966 32.9851 25.7791 33.2549L25.7399 33.3705C25.6224 33.6403 25.7399 33.9486 25.9749 34.1028C27.2283 34.8351 28.3641 35.7215 29.265 36.7236C30.2833 37.8798 31.0667 39.1902 31.615 40.6163L32.2809 42.3506C32.4767 42.8131 33.1034 42.8516 33.3384 42.3892L34.2392 40.6933C35.6101 38.0725 37.2159 35.5674 39.096 33.2549C40.8585 31.0581 42.856 29.0539 45.0102 27.2039C45.2844 26.9727 45.3236 26.6644 45.1277 26.3946Z" fill="white"/>
</svg>
