<svg width="17" height="16" viewBox="0 0 17 16" fill="none" xmlns="http://www.w3.org/2000/svg">
<path d="M14.5 3.98665C12.28 3.76665 10.0467 3.65332 7.82 3.65332C6.5 3.65332 5.18 3.71999 3.86 3.85332L2.5 3.98665" stroke="#D1292D" stroke-width="1.5" stroke-linecap="round" stroke-linejoin="round"/>
<path d="M6.1665 3.31325L6.31317 2.43992C6.41984 1.80659 6.49984 1.33325 7.6265 1.33325H9.37317C10.4998 1.33325 10.5865 1.83325 10.6865 2.44659L10.8332 3.31325" stroke="#D1292D" stroke-width="1.5" stroke-linecap="round" stroke-linejoin="round"/>
<path d="M13.0664 6.09326L12.6331 12.8066C12.5598 13.8533 12.4998 14.6666 10.6398 14.6666H6.35977C4.49977 14.6666 4.43977 13.8533 4.36644 12.8066L3.93311 6.09326" stroke="#D1292D" stroke-width="1.5" stroke-linecap="round" stroke-linejoin="round"/>
<path d="M7.38672 11H9.60672" stroke="#D1292D" stroke-width="1.5" stroke-linecap="round" stroke-linejoin="round"/>
<path d="M6.8335 8.33325H10.1668" stroke="#D1292D" stroke-width="1.5" stroke-linecap="round" stroke-linejoin="round"/>
</svg>
