<svg width="44" height="44" viewBox="0 0 44 44" fill="none" xmlns="http://www.w3.org/2000/svg">
<path d="M43.0497 33.1837C41.8529 30.5234 40.2332 28.1882 38.3956 26.0224C34.9308 21.9303 30.9544 18.5102 26.5219 15.7084C24.4977 14.4281 22.4088 13.2914 20.2258 12.3621C18.7649 11.7399 17.2948 11.1396 15.8265 10.5354C15.7046 10.4855 15.5698 10.4795 15.4442 10.4516C15.446 10.6032 15.422 10.7667 15.4626 10.9063C15.7415 11.8655 16.0352 12.8148 16.3196 13.77C17.1101 16.4363 17.8876 19.1105 18.6873 21.7748C19.1583 23.3442 19.6292 24.9156 20.1039 26.4831L24.8929 28.4035C24.7137 27.8073 24.5309 27.209 24.3518 26.6107C23.698 24.443 23.0423 22.2773 22.383 20.1136C22.1576 19.3658 21.9175 18.6259 21.6848 17.8821C21.7088 17.8521 21.7366 17.8222 21.7624 17.7963C22.2943 18.0974 22.8539 18.3627 23.3563 18.7136C25.3325 20.0896 27.3345 21.4318 29.2442 22.9075C31.2739 24.4729 33.1264 26.2777 34.8347 28.244C36.2458 29.8633 37.5645 31.5624 38.6393 33.4648C39.2728 34.5896 39.8195 35.7602 40.0485 37.0764C40.1612 37.7285 39.9802 38.2051 39.5018 38.5999C38.7169 39.252 37.8101 39.5253 36.8497 39.6349C35.2004 39.8284 33.5918 39.5512 32.0201 39.0566C30.7328 38.6498 29.4787 38.1273 28.2081 37.6666C28.1176 37.6347 28.0363 37.5949 27.9624 37.547H27.9606L27.9033 37.5111L22.4421 34.3343C22.2685 34.2366 22.189 34.1967 22.117 34.1469C17.5386 30.9322 13.4994 27.0574 10.0198 22.5146C8.01781 19.9062 6.28542 17.1123 5.09048 13.9574C4.45884 12.2963 3.99527 10.5932 4.00081 8.77449C4.00635 6.39539 5.0203 5.01739 7.11098 4.47695C8.66238 4.07412 10.2267 4.29748 11.7615 4.60259C13.5253 4.95158 15.2189 5.5997 16.8644 6.37744C20.85 8.26397 24.4201 10.8624 27.7667 13.8358C28.4112 14.4101 28.3983 14.4221 28.9376 13.7441C29.5378 12.9942 30.1399 12.2444 30.7457 11.4966C30.947 11.2493 30.9544 11.0559 30.6829 10.8604C30.4631 10.7029 30.2674 10.5095 30.0605 10.33C27.7537 8.31781 25.3602 6.43129 22.7745 4.85386C20.1833 3.27245 17.4979 1.91639 14.6278 0.993065C12.3377 0.2572 10.0235 -0.147621 7.63366 0.0498056C6.39254 0.151511 5.18837 0.454631 4.07838 1.0848C3.76995 1.26029 3.46337 1.4657 3.20111 1.71298C2.63596 2.24543 2.0154 2.74598 1.57399 3.38612C0.705948 4.64846 0.242378 6.10424 0.0687699 7.67767C-0.0697473 8.92405 0.0115156 10.1605 0.218368 11.3769C0.369813 12.2883 0.650542 13.1737 0.910954 14.0592C1.34128 15.5269 1.88427 16.9488 2.60271 18.2809C3.33039 19.629 4.0673 20.9771 4.88178 22.2614C5.68149 23.5137 6.57723 24.6983 7.45451 25.8928C7.56532 26.0424 7.63181 26.176 7.64104 26.3156L10.7641 29.8094L10.7697 29.8154C10.8085 29.8473 10.8546 29.8932 10.9137 29.955C11.6303 30.7208 12.3672 31.4646 13.1226 32.1786C14.1236 33.1378 15.1579 34.0511 16.2162 34.9326C18.6227 36.9328 21.1566 38.7256 23.866 40.2133C24.0156 40.297 24.1357 40.3927 24.2299 40.5144H24.2317L26.1248 41.35L29.259 42.728C29.8869 42.9154 30.4576 43.0949 31.032 43.2544C33.3166 43.8906 35.6271 44.2396 37.9837 43.8108C39.7309 43.4917 41.3247 42.8017 42.5935 41.4118C43.288 40.646 43.842 39.7725 43.9473 38.6737C44.132 36.7573 43.831 34.9326 43.046 33.1856L43.0497 33.1837Z" fill="#005E5E"/>
</svg>
